<?xml version="1.0" encoding="utf-8"?>
<!-- Generator: Adobe Illustrator 19.0.0, SVG Export Plug-In . SVG Version: 6.00 Build 0)  -->
<svg version="1.1" id="Layer_1" xmlns="http://www.w3.org/2000/svg" xmlns:xlink="http://www.w3.org/1999/xlink" x="0px" y="0px"
	 viewBox="0 0 500 500" style="enable-background:new 0 0 500 500;" xml:space="preserve">
<style type="text/css">
	.st0{fill:#0071BC;}
	.st1{opacity:0.5;}
	.st2{fill:#FFFFFF;}
</style>
<rect id="XMLID_6_" class="st0" width="500" height="500"/>
<g id="XMLID_1_" class="st1">
	<path id="XMLID_2_" class="st2" d="M604.8,231.9v253.2c0,5.3-1.1,9.1-3.2,11.4c-2.1,2.3-6,3.4-11.6,3.4H343.2
		c-5.3,0-9.1-1.2-11.4-3.6c-2.3-2.4-3.4-6.3-3.4-11.6V181.5c0-9.9,4.8-14.8,14.4-14.8h196.4c5.1,0,9.3,1.7,12.8,5.2l24,23.2
		c10.4,10.4,18.3,18.3,23.6,23.6C603.3,222.4,605.1,226.8,604.8,231.9z M541.6,372.7c1.1-1.1,1.3-2.5,0.8-4.4
		c-0.5-2.4-2.8-3.6-6.8-3.6H396.8c-2.4,0-4.2,0.5-5.4,1.4c-1.2,0.9-1.7,2.3-1.6,4c0.1,1.7,0.8,2.9,2,3.4c1.2,0.5,2.9,0.8,5,0.8
		h121.6c8.3,0.3,14.5,0.3,18.8,0C539.1,374.3,540.5,373.7,541.6,372.7z M390,274.3c0,3.2,2,4.7,6,4.6c4-0.1,10-0.1,18,0.2h18
		c8.3-0.3,14.4-0.3,18.4-0.2c4,0.1,6-1.4,6-4.6c0-3.2-2-4.8-6-4.8c-18.1,0-36.3,0-54.4,0C392,269.5,390,271.1,390,274.3z
		 M542.2,324.5c0.9-1.5,0.9-3,0-4.6c-0.9-1.6-2.9-2.4-5.8-2.4H395.6c-3.7,0-5.6,1.6-5.6,4.8c0,1.6,0.5,2.7,1.4,3.4
		c0.9,0.7,2.3,1.1,4.2,1.4l3.6-0.4h114c10.7,0.3,18.8,0.3,24.4,0C539.7,326.7,541.3,325.9,542.2,324.5z M540.4,413.1
		c-0.8-0.5-2.1-0.8-4-0.8H394.8c-1.3,0-2.5,0.4-3.4,1.2c-0.9,0.8-1.4,1.9-1.4,3.2c0,3.2,1.6,4.8,4.8,4.8c0.5,0.3,1.3,0.3,2.4,0
		l118.4,0.4c9.6,0,16.9-0.1,22-0.4c2.9,0,4.5-1.2,4.8-3.6C542.9,415.7,542.3,414.1,540.4,413.1z M671.6,421.1
		c-0.5,3.7-1.7,6.6-3.6,8.6c-1.9,2-4.5,3-8,3c-5.3,0.3-13.5,0.4-24.4,0.4c-2.1,0-3.2-1.2-3.2-3.6v-17.2c0-1.3,0.3-2.3,0.8-2.8
		c0.5-0.5,1.5-0.8,2.8-0.8h0.8c4,0,6.7-0.1,8-0.4c1.3-0.3,2.1-1.1,2.4-2.4c0.3-1.3,0.4-4,0.4-8V174.3c0-1.9-0.3-3.2-1-4
		c-0.7-0.8-1.9-1.1-3.8-0.8h-32.4c-3.2,0-5.5-0.7-6.8-2c-1.3-1.3-2-3.6-2-6.8v-10.4c-0.3-9.6-0.3-16.7,0-21.2c0.3-2.1,0-3.5-0.8-4.2
		c-0.8-0.7-2.3-1-4.4-1H426c-3.5,0-5.5,0.2-6,0.6c-0.5,0.4-0.8,1.8-0.8,4.2v4.4c-0.3,3.2-0.7,5.1-1.4,5.6c-0.7,0.5-2.9,0.8-6.6,0.8
		c-5.6,0-9.9,0.1-12.8,0.4c-2.1,0-3.2-1.2-3.2-3.6v-7.6c-0.3-6.7-0.3-11.7,0-15.2c0-8.8,4.5-13.3,13.6-13.6H604
		c6.4,0,11.9,2.3,16.4,6.8c10.1,10.1,25.3,25.1,45.6,44.8c3.7,3.7,5.6,8.4,5.6,14c0,41.9,0,83.9,0,126V421.1z"/>
</g>
</svg>
