<?xml version="1.0" encoding="utf-8"?>
<!-- Generator: Adobe Illustrator 19.0.0, SVG Export Plug-In . SVG Version: 6.00 Build 0)  -->
<svg version="1.1" id="Layer_1" xmlns="http://www.w3.org/2000/svg" xmlns:xlink="http://www.w3.org/1999/xlink" x="0px" y="0px"
	 viewBox="0 0 500 500" style="enable-background:new 0 0 500 500;" xml:space="preserve">
<style type="text/css">
	.st0{fill:#F7931E;}
	.st1{opacity:0.5;}
	.st2{fill:#FFFFFF;}
</style>
<rect id="XMLID_6_" class="st0" width="500" height="500"/>
<g id="XMLID_7_" class="st1">
	<path id="XMLID_8_" class="st2" d="M252,216.4c-1.7,2.1-3.3,3.4-4.7,3.9c-1.4,0.5-2.9-0.3-4.6-2.3c-1.7-2.1-2.1-3.9-1-5.7
		c0.7-0.7,2.2-1.7,4.6-3.1l2.1-1.5l110-92.9c4.1-3.4,7.9-5.3,11.4-5.7c15.1-1.7,35.4-4.1,60.9-7.2h2.1c1.7-0.3,3-0.3,3.9,0.3
		c0.9,0.5,1.3,1.8,1.3,3.9c0,2.1-0.6,3.4-1.8,3.9c-1.2,0.5-3,0.9-5.4,1.3h-2.1c-16.5,2.4-33.7,4.5-51.6,6.2
		c-5.5,0.3-10.5,2.6-15,6.7c-44.1,37.2-80,67.3-107.9,90.3L252,216.4z M260.8,227.7c-1.4,2.1-2.7,3.4-4.1,3.9
		c-1.4,0.5-2.9-0.3-4.6-2.3c-1.7-2.1-2.3-3.6-1.8-4.6c0.5-1,1.6-2.2,3.4-3.6l2.6-1.5l36.1-30.5c32-27.2,56.1-47.5,72.3-60.9
		c3.8-2.7,8.1-4.8,12.9-6.2c3.1-0.7,7.9-1.2,14.4-1.6c7.6-0.3,13.2-1,16.8-2.1c3.6-1,9.2-1.7,16.8-2.1l8.8-1
		c3.8-0.7,5.9,0.7,6.2,4.1c-0.7,1.4-1.5,2.3-2.6,2.8c-1,0.5-2.4,1-4.1,1.3l-15,2.1c-11,1.4-19.3,2.2-24.8,2.6
		c-6.5,0-12.7,1.5-18.6,4.7c-4.8,2.1-10,5.7-15.5,10.8c-32.4,27.9-64.9,55.2-97.6,82.1L260.8,227.7z M738.6,236.3
		c0.5,1.9-0.6,4.2-3.4,7c-19.3,22-33.4,38.9-42.3,50.6c-2.8,3.4-5.2,5.2-7.5,5.4c-2.2,0.2-4.9-1.3-8-4.4
		c-5.9-5.5-15.1-13.4-27.9-23.7l-15-12.4v202.4c0,7.2-0.4,12.3-1.3,15.2c-0.9,2.9-2.7,5.2-5.4,7c-2.7,1.7-7.6,3.4-14.4,5.2
		c-19.6,5.5-42.9,8.8-69.7,9.8c-30.6,1.7-57.1,2.1-79.5,1c-28.2-1.4-54.4-5-78.5-10.8c-7.6-1.7-12.7-3.4-15.5-4.9
		c-2.8-1.5-4.5-4.1-5.2-7.5c-0.7-2.4-1-7.6-1-15.5l-0.5-201.3l-14.5,11.9c-13.4,11-23.1,19.3-28.9,24.8c-2.7,2.4-5.1,3.5-7,3.4
		c-1.9-0.2-4.1-1.6-6.5-4.4c-9.6-11.7-24.1-28.9-43.4-51.6c-2.4-2.8-3.5-5-3.4-6.7c0.2-1.7,1.5-3.6,3.9-5.7
		c24.4-20.3,60.7-50.8,108.9-91.4c3.1-2.4,6.9-4,11.4-4.7l9.8-1.5c9.6-1,16.9-2.1,21.7-3.1c9.3-1.4,16.3-1.5,21.2-0.5
		c6.9,1.7,13.1,6.2,18.6,13.4c7.6,10.3,17.3,16.9,29.2,19.6c11.9,2.8,23.7,1.9,35.4-2.6c11.7-4.5,21.3-12,28.9-22.7
		c2.7-4.1,5.6-7,8.5-8.5c2.9-1.5,6.6-1.6,11.1-0.3c2.7,1,7.1,1.5,12.9,1.5c13.4,0,26.3,2.9,38.7,8.8c11,5.2,22,12.9,33,23.2
		c12.4,12.1,31.8,28.7,58.3,50.1c9.6,7.9,16.9,13.8,21.7,17.5C736.2,232.2,738,234.4,738.6,236.3z M463.4,144.6
		c-10.8-8.9-16.9-19.8-18.3-32.5l-0.5-2.1c-0.3-2.8-0.3-4.7,0-5.7c0.3-2.1,1.9-3.4,4.6-4.1c2.8-0.7,4.6-0.4,5.4,0.8
		c0.9,1.2,1.5,3.2,1.8,5.9l0.5,2.6c2.4,11,7.6,19.9,15.5,26.6c7.9,6.7,16.9,10,27.1,9.8c10.2-0.2,19.2-3.6,27.1-10.3
		c7.9-6.7,13.1-15.4,15.5-26.1l0.5-3.1c0-2.4,0.4-4.1,1.3-5.2c0.9-1,2.7-1.3,5.4-0.8c2.7,0.5,4.5,1.6,5.1,3.4c0.3,1,0.2,2.8-0.5,5.2
		l-0.5,2.6c-1.7,13.1-7.8,24.1-18.3,33c-10.5,9-22.5,13.4-35.9,13.4C486.2,158.1,474.2,153.6,463.4,144.6z M585.5,197.3
		c-1.7-1-5-1.4-9.8-1h-7.2c-5.9-0.3-9.8,0-11.9,1c-3.1,1.7-4.3,5.9-3.6,12.4c0.7,4.5,3,9.5,7,15c4,5.5,7.6,8.3,10.8,8.3
		s6.8-2.8,10.6-8.5c3.8-5.7,6-10.9,6.7-15.7C588.8,202.8,587.9,199,585.5,197.3z M743.5,220c2.4,1.4,4,2.6,4.6,3.6
		c1,1.4,0.6,3.1-1.3,5.2c-1.9,2.1-3.4,2.8-4.6,2.3c-1.2-0.5-2.5-1.6-3.9-3.4l-2.1-2.1c-34.4-28.6-67.6-56.6-99.6-84.1
		c-9.6-8.6-19.5-13.1-29.4-13.4c-7.2-0.3-18.1-1.5-32.5-3.6l-9.8-1.6c-2.1,0-3.7-0.2-4.9-0.5c-1.2-0.3-1.8-1.5-1.8-3.4
		c0-1.9,0.6-3,1.8-3.4c1.2-0.3,3-0.5,5.4-0.5h1.5l9.3,1c22.4,3.1,39.2,5.7,50.6,7.7c2.4,0.3,5.5,2.4,9.3,6.2
		C682.9,169.4,718,199,741.4,219L743.5,220z M752.2,209.2c2.4,1.4,4.1,2.7,4.9,3.9c0.9,1.2,0.3,2.8-1.5,4.9
		c-1.9,2.1-3.7,2.8-5.4,2.1c-1-0.3-2.6-1.7-4.6-4.1l-2.1-2.1l-27.9-23.2c-35.1-29.2-61.3-51.4-78.5-66.6c-3.4-2.7-7.4-4.8-11.9-6.2
		c-2.8-0.7-7.1-1.4-12.9-2.1l-6.2-0.5c-8.3-1.4-20.7-2.9-37.2-4.6l-3.6-0.5c-3.8-0.7-5.5-2.6-5.2-5.7c0.3-2.4,2.1-3.3,5.2-2.6
		l65.6,7.7c2.8,0.3,5.9,2.2,9.3,5.7c35.8,29.6,72.3,60.4,109.4,92.4L752.2,209.2z"/>
</g>
</svg>
