<?xml version="1.0" encoding="utf-8"?>
<!-- Generator: Adobe Illustrator 19.0.0, SVG Export Plug-In . SVG Version: 6.00 Build 0)  -->
<svg version="1.1" id="Layer_1" xmlns="http://www.w3.org/2000/svg" xmlns:xlink="http://www.w3.org/1999/xlink" x="0px" y="0px"
	 viewBox="0 0 500 500" style="enable-background:new 0 0 500 500;" xml:space="preserve">
<style type="text/css">
	.st0{fill:#ED1C24;}
	.st1{opacity:0.5;}
	.st2{fill:#FFFFFF;}
</style>
<rect id="XMLID_6_" class="st0" width="500" height="500"/>
<g id="XMLID_1_" class="st1">
	<path id="XMLID_2_" class="st2" d="M625.6,366.9c-11.3-5.9-21.1-10.6-29.3-14.1l-1.8-1.2c-2-0.4-3.3-1.2-4.1-2.4l8.8-3.5
		c5.5-2.3,9.6-4.3,12.3-5.9c6.3-2.7,10.5-6.7,12.9-12c2.4-5.3,2.4-11.2,0-17.9c-4.7-12.5-7.6-21.9-8.8-28.1c-0.8-2.4-2-3.5-3.5-3.5
		c-4.7,0-7.6-2.3-8.8-7l-7-22.9c-1.2-3.1-1.2-6.1,0-8.8c0.4-1.9,1.4-3.5,2.9-4.7c1.6-1.2,3.1-1.6,4.7-1.2c3.1,1.2,5,1.3,5.6,0.3
		c0.6-1,0.7-2.8,0.3-5.6c-1.6-10.9-2.4-19.4-2.4-25.2c0-12.1,3.3-23.1,10-32.8c6.7-9.8,15.4-17,26.4-21.7c11-4.7,22.3-6.1,34-4.1
		c14.5,2.7,26.4,9.8,35.8,21.1c9.4,11.3,13.9,24.3,13.5,38.7c0,8.6-0.6,17-1.8,25.2v0.6c-0.4,1.6-0.5,2.8-0.3,3.8
		c0.2,1,1.3,1.3,3.2,0.9c4.3-0.8,7.2-0.4,8.8,1.2c1.6,1.6,2.2,4.5,1.8,8.8c-0.8,6.7-3.5,16.2-8.2,28.7c-1.2,3.1-3.3,4.7-6.4,4.7
		c-3.1,0-4.9,1.4-5.3,4.1c-1.6,8.2-4.3,17.2-8.2,27c-2.7,6.7-2.9,12.7-0.6,18.2c2.4,5.5,6.8,9.8,13.5,12.9l8.8,4.1
		c13.7,5.5,23.9,10,30.5,13.5c17.2,7.4,26.8,20.7,28.7,39.9c0,2.7,0.4,4.7,1.2,5.9v19.4c-0.8,0.4-1.2,1.4-1.2,2.9
		c-2,11.4-8,18.4-18.2,21.1c-5.1,2-11.3,3.3-18.8,4.1c-14.1,2-35.2,3.3-63.3,4.1l-23.5,0.6c-2,0-3.2-0.4-3.8-1.2
		c-0.6-0.8-0.9-2.2-0.9-4.1c0.8-4.7,0.8-11.7,0-21.1l-0.6-5.3c-1.9-13.3-5.6-24.6-11.1-34C645.6,380.2,637,372.3,625.6,366.9z
		 M357.6,383.3c8.6-5.8,22.5-12.9,41.6-21.1l14.1-6.5c3.5-1.2,6.1-2.2,7.6-2.9c8.2-3.9,13.8-9.5,16.7-16.7
		c2.9-7.2,2.6-15.1-0.9-23.8c-5.5-12.9-9.2-24.2-11.2-34c0-2.7-1.4-3.9-4.1-3.5c-5.5,0-9.2-2.9-11.1-8.8l-8.8-28.7
		c-1.2-3.5-1.4-7.5-0.6-12c0.8-4.5,3.1-6.8,7-7c3.9-0.2,5.5-2.3,4.7-6.2l-0.6-6.4c-0.4-5.9-0.8-10.2-1.2-12.9
		c-2-14.5-0.2-28.3,5.3-41.6c5.5-13.3,13.8-24.4,24.9-33.4c11.1-9,24-14.5,38.4-16.4c0.4,0,1.4-0.2,2.9-0.6l1.2-0.6h17
		c1.2,1.2,2.9,1.8,5.3,1.8h2.9c21.5,5.1,38.1,16.3,49.9,33.7c11.7,17.4,16.2,37.2,13.5,59.5l-0.6,4.1c-0.8,6.3-1,11.1-0.6,14.7
		c0,2.4,1,3.7,2.9,4.1c5.9,0.4,8.8,4.1,8.8,11.1c0.4,3.9-0.8,9.6-3.5,17l-1.8,4.7c-0.4,2-1.2,4.7-2.4,8.2l-1.2,4.1
		c-1.2,3.9-2.6,6.8-4.4,8.8c-1.8,2-4.6,2.9-8.5,2.9c-1.6,0-2.7,1-3.5,2.9c-2.7,13.7-6.5,25.6-11.1,35.8c-3.5,8.6-2.9,18,1.8,28.1
		c1.6,4.3,5.9,7.6,12.9,10c5.1,2.4,12.5,5.7,22.3,10c13.3,5.9,23.1,10.4,29.3,13.5c7.1,3.9,12.1,7.1,15.2,9.4
		c8.6,6.3,14.3,13.9,17,22.9c5.9,21.1,7,40.1,3.5,56.9c-2.4,12.5-10,20.9-22.9,25.2c-8.6,2.7-21.5,4.9-38.7,6.4
		c-11.7,1.2-29.5,2.2-53.4,2.9c-1.2,0-2.9,0.4-5.3,1.2h-71l-44.6-2.9c-19.2-0.8-36-2.9-50.4-6.5c-9-2-15.6-5.6-19.9-10.8
		c-4.3-5.3-6.8-12.4-7.6-21.4c-1.2-17.6,0.6-34.8,5.3-51.6C341.9,397.8,347.8,389.9,357.6,383.3z M211,389.2
		c1.6-7.4,6.2-13.7,14.1-18.8c5.1-3.1,13.1-7.1,24.1-11.7c7-3.1,12.3-5.5,15.8-7.1c5.9-2.7,9.8-6.5,11.7-11.4
		c2-4.9,1.8-10.5-0.6-16.7c-1.2-1.6-2.2-2.7-2.9-3.5c-0.8-0.8-1.9-1.4-3.5-1.8c-12.5-2-22.9-4.7-31.1-8.2
		c-9.8-4.7-16.6-9.8-20.5-15.2c-1.2-1.6-1.7-2.9-1.5-4.1c0.2-1.2,1.5-2.2,3.8-2.9c5.9-2.4,10.5-6.1,14.1-11.1
		c6.3-8.2,10.2-20.1,11.7-35.8l1.2-9.4c1.6-12.5,3.3-21.9,5.3-28.2c3.9-11.3,10.8-20.7,20.5-28.2c9.8-7.4,20.7-11.9,32.8-13.5
		c12.1-1.6,23.6,0.4,34.3,5.9c10.7,5.5,19.5,13.5,26.1,24c5.9,9,10.2,20.1,12.9,33.4l2.4,13.5c2,14.5,4.5,25.2,7.6,32.3
		c3.9,9.8,10.4,15.2,19.4,16.4c2.4,0.4,3.6,1.1,3.8,2.1c0.2,1-0.3,2.3-1.5,3.8c-2.7,5.5-7,9.8-12.9,12.9c-9,5.1-22.5,9.2-40.5,12.3
		l-1.8,0.6c-1.9,0.4-3.1,1-3.5,1.8c-3.1,5.5-4.1,11.3-2.9,17.6c1.2,6.3,4.9,10.5,11.1,12.9c3.1,1.2,7.8,3.3,14.1,6.4l-1.8,1.8
		l-8.8,4.1c-9.8,5.1-17.6,10.4-23.5,15.8c-7,7-11.7,15.2-14.1,24.6c-3.5,13.3-5.3,27-5.3,41.1c0,2.7-0.5,4.6-1.5,5.6
		c-1,1-3.1,1.3-6.4,0.9c-3.3-0.4-8.4-0.6-15.3-0.6c-6.8,0-12,0-15.5,0h-0.6c-24.2-0.8-42.3-2.4-54.3-5c-11.9-2.5-18.7-8.9-20.2-19.1
		c0-0.8-0.4-1.2-1.2-1.2v-16.4L211,389.2z"/>
</g>
</svg>
