<?xml version="1.0" encoding="utf-8"?>
<!-- Generator: Adobe Illustrator 19.0.0, SVG Export Plug-In . SVG Version: 6.00 Build 0)  -->
<svg version="1.1" id="Layer_1" xmlns="http://www.w3.org/2000/svg" xmlns:xlink="http://www.w3.org/1999/xlink" x="0px" y="0px"
	 viewBox="0 0 100 100" style="enable-background:new 0 0 100 100;" xml:space="preserve">
<style type="text/css">
	.st0{fill:#CCCCCC;}
</style>
<g id="XMLID_1_">
	<path id="XMLID_2_" class="st0" d="M96.1,26.3c2.6,5,3.9,10.3,3.9,15.9c0,5.6-1.3,10.9-3.9,15.9c-2.6,5-6.2,9.5-11,13.3
		C80.4,75.3,75,78.2,69,80.2c-6.1,2-12.4,3-19,3c-1.8,0-3.2,0-4-0.1l-8.6,14.1c-0.6,1.1-1.6,1.6-2.9,1.6c-1.2,0-2.2-0.5-2.9-1.5
		L13.6,70.5c-4.4-3.8-7.8-8.1-10.1-13C1.2,52.6,0,47.6,0,42.2c0-5.6,1.3-10.9,3.8-15.9c2.6-5,6.2-9.5,10.9-13.3
		c4.7-3.8,10.1-6.8,16.2-8.8c6.1-2,12.4-3,19-3s13,1,19,3C75,6.2,80.4,9.2,85,13C89.8,16.9,93.5,21.3,96.1,26.3z M48.8,33.3
		c0-0.2-0.1-0.3-0.3-0.3H20.8c-0.2,0-0.3,0.1-0.3,0.3v4c0,0.2,0.1,0.3,0.3,0.3h27.7c0.2,0,0.3-0.1,0.3-0.3V33.3z M48.8,42.5
		c0-0.2-0.1-0.3-0.3-0.3H20.8c-0.2,0-0.3,0.1-0.3,0.3v4.1c0,0.2,0.1,0.3,0.3,0.3h27.7c0.2,0,0.3-0.1,0.3-0.3V42.5z M48.8,51.7
		c0-0.2-0.1-0.3-0.3-0.3H20.8c-0.2,0-0.3,0.1-0.3,0.3v4c0,0.2,0.1,0.3,0.3,0.3h27.7c0.2,0,0.3-0.1,0.3-0.3V51.7z M79.4,33.4
		c0-3.4-1.1-6.2-3.3-8.2c-2.2-2-5.6-3-10.1-3h-2.4l-2.4,0.3c-0.5,0.1-1.2,0.3-2.3,0.6l-2.7,0.9c0.2,1.1,0.4,2.2,0.7,3.2
		c0.4,1.1,0.8,2.1,1.3,3c0.8-0.3,1.3-0.5,1.6-0.6c0.3-0.1,0.8-0.2,1.4-0.4l1.9-0.3h2.1c1.8,0,3.3,0.4,4.5,1.2c1.2,0.8,1.8,2,1.8,3.6
		c0,1.1-0.3,2-0.8,2.7c-0.4,0.6-1,1.2-1.7,1.7c-0.8,0.5-1.6,1-2.6,1.3c-1,0.3-1.9,0.5-2.7,0.6v9.5c1.1,0.2,2.3,0.3,3.5,0.3
		c1.2,0,2.4-0.1,3.7-0.3v-5c0.3-0.1,0.9-0.3,1.7-0.8l0.7-0.3c1.2-0.7,2.2-1.4,3-2.2c0.8-0.8,1.6-1.8,2.3-3.2
		C79.2,36.6,79.5,35.1,79.4,33.4z M71.4,57.8c0-0.9-0.1-2.2-0.2-4.1c-1.4-0.2-2.8-0.3-4.2-0.3c-1.3,0-2.6,0.1-3.9,0.3
		c-0.2,1.4-0.3,2.7-0.3,4.1c0,1.3,0.1,2.7,0.3,4.1c1.3,0.2,2.6,0.3,3.9,0.3c1.3,0,2.7-0.1,4.2-0.3C71.4,60.1,71.4,58.7,71.4,57.8z"
		/>
</g>
</svg>
