<?xml version="1.0" encoding="utf-8"?>
<!-- Generator: Adobe Illustrator 19.0.0, SVG Export Plug-In . SVG Version: 6.00 Build 0)  -->
<svg version="1.1" id="Layer_1" xmlns="http://www.w3.org/2000/svg" xmlns:xlink="http://www.w3.org/1999/xlink" x="0px" y="0px"
	 viewBox="-247 370.9 100 100" style="enable-background:new -247 370.9 100 100;" xml:space="preserve">
<style type="text/css">
	.st0{fill:#FFFFFF;}
</style>
<g id="XMLID_63_">
	<path id="XMLID_64_" class="st0" d="M-146.6,446.1l-3.6,24.8h-91.4l-3.5-24.8c-0.2-0.6-0.1-1.2,0.1-1.9c0.2-0.6,0.5-1.2,1-1.6
		c0.8-1.1,1.9-1.6,3.3-1.6h89.8c1.4,0,2.5,0.5,3.4,1.6C-146.8,443.4-146.5,444.6-146.6,446.1z M-239.9,438.1l-4.7-31
		c0-2.3,0.6-4.5,1.8-6.6c1.2-2,2.8-3.6,4.8-4.8c2-1.2,4.2-1.8,6.6-1.8h70.5c2.3,0,4.5,0.6,6.5,1.8c2,1.2,3.6,2.8,4.8,4.8
		c1.2,2,1.8,4.2,1.8,6.6l-4.1,30.6h-6.2l4.2-30.6c0-2-0.7-3.6-2-4.9c-1.3-1.3-3-2-4.9-2h-70.5c-1.9,0-3.5,0.7-4.9,2
		c-1.4,1.3-2,3-2,4.9l4.7,31H-239.9z M-230.7,384.4c-0.1-0.5,0.1-1,0.4-1.5c0.3-0.5,0.7-0.7,1.2-0.7h63.4c0.5,0,0.9,0.2,1.3,0.6
		c0.4,0.4,0.5,0.9,0.4,1.4l-1.1,4.9h-64.4L-230.7,384.4z M-167.8,422c-0.5,0.5-1.1,0.7-1.7,0.7h-52.5c-0.6,0-1.2-0.2-1.7-0.7
		c-0.5-0.5-0.8-1-0.9-1.7l-0.7-3.9c-0.1-0.8,0.1-1.4,0.5-1.9c0.4-0.5,0.9-0.7,1.6-0.7h55c0.7,0,1.2,0.2,1.6,0.7
		c0.4,0.5,0.5,1.1,0.5,1.9l-0.7,3.9C-167,421-167.3,421.6-167.8,422z M-224.1,373.6c-0.2-0.5,0-1,0.3-1.4c0.4-0.4,0.8-0.6,1.2-0.6
		h50.2c0.6,0,1,0.2,1.3,0.7c0.3,0.3,0.5,0.8,0.5,1.4l-0.9,4.9h-51.7L-224.1,373.6z M-169.7,430.1c0.4,0.4,0.5,0.9,0.5,1.5l-0.6,3.3
		c-0.1,0.5-0.3,1-0.8,1.4c-0.5,0.4-1,0.6-1.6,0.6h-47.2c-0.6,0-1.1-0.2-1.6-0.6c-0.5-0.4-0.8-0.9-0.9-1.5l-0.5-3.3
		c-0.1-0.6,0.1-1.1,0.4-1.5c0.3-0.4,0.8-0.6,1.4-0.6h49.3C-170.5,429.5-170,429.7-169.7,430.1z"/>
</g>
</svg>
