<?xml version="1.0" encoding="utf-8"?>
<!-- Generator: Adobe Illustrator 19.0.0, SVG Export Plug-In . SVG Version: 6.00 Build 0)  -->
<svg version="1.1" id="Layer_1" xmlns="http://www.w3.org/2000/svg" xmlns:xlink="http://www.w3.org/1999/xlink" x="0px" y="0px"
	 viewBox="-247 370.9 100 100" style="enable-background:new -247 370.9 100 100;" xml:space="preserve">
<style type="text/css">
	.st0{fill:#CCCCCC;}
</style>
<g>
	<path class="st0" d="M-247,455.5c0.3-5.8,3.9-11.3,10.8-16.5c1.1-0.9,2.8-1.9,5.3-3.2l0.5-0.2c2.5-1.3,4.4-2.5,5.5-3.7
		c1.3-1.3,2.2-2.8,2.4-4.5c0.3-1.7,0.2-3.9-0.4-6.6c-0.7-3-0.6-5.6,0.2-7.7c0.8-2.1,2.3-4.1,4.6-6c2.3-1.9,4.5-4,6.4-6.3
		c0.9-1.1,1.7-1.6,2.4-1.5c0.7,0.1,1.6,0.6,2.6,1.6c10.2,10.4,18.8,19,25.7,25.7c1.1,1.1,1.7,2,1.6,2.8c0,0.8-0.6,1.6-1.7,2.6
		c-1.1,0.7-2,1.7-2.9,2.8c-2.8,3.6-5.6,6.1-8.4,7.4c-3.4,1.5-7.2,1.7-11.5,0.5c-2.4-0.7-4.6-0.4-6.5,0.9c-1.8,1.2-3.3,3.1-4.4,5.6
		c-3.1,6.9-7.4,11.9-12.9,15.2c-2.8,1.6-5.6,2.5-8.4,2.7c-3.5,0.1-6.1-0.8-8-2.8C-246.1,462.4-247.1,459.4-247,455.5z M-230.3,455.4
		c1.5-0.1,2.7-0.5,3.5-1.4c0.8-0.8,1.2-2,1.3-3.5c0-1.5-0.4-2.7-1.3-3.6s-2.1-1.4-3.6-1.4c-1.5,0-2.7,0.5-3.5,1.3
		c-0.9,0.8-1.3,2-1.4,3.5C-235.4,453.5-233.7,455.2-230.3,455.4z M-186.7,429.7c-0.5-0.5-1.1-1.2-1.8-2.1c-0.5-0.6-0.9-1-1.2-1.3
		l-15.3-15.2c-1.6-1.6-2.7-2.6-3.2-2.9c-0.7-0.4-1.5-0.4-2.2,0.1c-0.5,0.3-1.6,1.3-3.2,2.9c-0.4,0.5-0.7,0.9-1,1
		c-1,0.7-1.5,1.5-1.4,2.2c0.1,0.7,0.6,1.5,1.6,2.4c2.6,2.5,6.4,6.3,11.4,11.4l5.7,5.7c0.1,0.1,0.4,0.4,0.7,0.8
		c0.5,0.7,1,1.1,1.3,1.2c0.6,0.3,1.2,0.2,1.9-0.3c1-0.7,2.4-2,4.2-3.7L-186.7,429.7z M-175.5,426.1c-0.1-0.1-0.2-0.2-0.3-0.3
		c-0.9-0.7-1.5-1.3-1.8-1.6l-6.7-6.7c-8.9-8.9-15.5-15.5-20-19.9c-0.9-0.9-1.3-1.6-1.2-2.1c0.1-0.6,0.5-1.3,1.4-2.2
		c5.6-5.4,11.1-10.9,16.5-16.5c1.3-1.4,2.5-2.1,3.7-2.1c1.2,0,2.5,0.7,3.8,2c7.6,7.9,15.3,15.6,23.2,23.2c1.5,1.4,2.2,2.7,2.3,3.9
		c0,1.2-0.7,2.5-2.3,3.9c-2.6,2.5-6.5,6.3-11.6,11.5l-4.6,4.6L-175.5,426.1z M-184.3,381.2c-1.3,1.5-3.3,3.8-6,6.7
		c-0.5,0.6-0.7,1.1-0.4,1.6c0.1,0.3,0.5,0.7,1,1.1l0.7,0.5c0.5,0.5,0.7,1,0.9,1.5c0.1,0.5,0,1-0.3,1.6c-0.8,1.6-1.1,3.1-1,4.6
		c0.2,1.5,0.9,2.9,2.1,4.2c1.2,1.3,2.6,2,4.1,2.3c1.5,0.2,3,0,4.6-0.9c2-1,3.5-0.3,4.6,2c0.3,0.7,0.2,1.4-0.2,1.9
		c-0.2,0.3-0.7,0.8-1.4,1.3c-0.7,0.5-1.2,0.9-1.4,1.2c-0.9,1.1-1.4,1.9-1.5,2.5c-0.3,1,0,1.9,0.8,2.6c1.5,1.4,3.2,1.1,5.1-0.8
		l1.4-1.4c3.1-3.3,5.5-5.7,7.2-7.2c1.1-0.9,1.7-1.8,1.7-2.6c0-0.8-0.5-1.7-1.6-2.7c-2.7-2.5-6.6-6.4-11.7-11.7l-6-6
		C-182.5,382.8-183.4,382.1-184.3,381.2z M-147,445.5c-0.4,5.7-3.1,9.7-8.1,12c-2.4,1.1-4.9,1.4-7.3,0.9c-2.5-0.5-4.7-1.7-6.7-3.7
		c-2-2-3.2-4.2-3.7-6.6s-0.2-4.9,1-7.4c1.4-2.9,3.8-7.2,7.1-12.9l2-3.5c0.6-1.1,1.4-1.7,2.4-1.8s1.8,0.3,2.5,1.2l2,3.2
		c2.3,3.5,3.9,6.2,5,8.1c1.7,3.1,2.9,6,3.8,8.7C-147,444.1-147,444.7-147,445.5z M-160,431.3c-0.5,0.8-1.1,2-2,3.5
		c-2.1,3.5-3.6,6.2-4.3,7.9c-0.8,1.7-1,3.4-0.6,4.9c0.4,1.5,1.4,2.8,3,3.9c2.9,1.8,5.7,1.6,8.4-0.6c1.3-1.1,2.2-2.4,2.5-3.9
		s0.1-3-0.8-4.6c-0.9-1.6-2.2-4.1-4.1-7.3L-160,431.3z"/>
</g>
</svg>
