<?xml version="1.0" encoding="utf-8"?>
<!-- Generator: Adobe Illustrator 19.0.0, SVG Export Plug-In . SVG Version: 6.00 Build 0)  -->
<svg version="1.1" id="Layer_1" xmlns="http://www.w3.org/2000/svg" xmlns:xlink="http://www.w3.org/1999/xlink" x="0px" y="0px"
	 viewBox="0 0 100 100" style="enable-background:new 0 0 100 100;" xml:space="preserve">
<style type="text/css">
	.st0{fill:#CCCCCC;}
</style>
<g id="XMLID_1_">
	<path id="XMLID_2_" class="st0" d="M94.6,3.7c1.7,1,3,2.3,3.9,3.9c1,1.7,1.5,3.5,1.5,5.4v46.7c0,1.9-0.5,3.7-1.5,5.4
		c-1,1.7-2.3,3-3.9,4c-1.7,1-3.5,1.4-5.4,1.4h-29L33.1,97.7V70.6H10.9c-1.9,0-3.7-0.5-5.4-1.4c-1.7-1-3-2.3-4-4
		c-1-1.7-1.5-3.5-1.5-5.4V13.1c0-1.9,0.5-3.7,1.5-5.4c1-1.7,2.3-3,4-3.9c1.7-1,3.5-1.4,5.4-1.4h78.3C91.1,2.3,92.9,2.8,94.6,3.7z"/>
</g>
</svg>
