<?xml version="1.0" encoding="utf-8"?>
<!-- Generator: Adobe Illustrator 19.0.0, SVG Export Plug-In . SVG Version: 6.00 Build 0)  -->
<svg version="1.1" id="Layer_1" xmlns="http://www.w3.org/2000/svg" xmlns:xlink="http://www.w3.org/1999/xlink" x="0px" y="0px"
	 viewBox="0 0 100 100" style="enable-background:new 0 0 100 100;" xml:space="preserve">
<style type="text/css">
	.st0{fill:#CCCCCC;}
</style>
<g id="XMLID_1_">
	<path id="XMLID_2_" class="st0" d="M36.7,61.1c0.6,0.6,0.9,1.3,0.9,2.2v31.5c0,0.8-0.3,1.5-0.9,2.1c-0.6,0.6-1.3,0.9-2.2,0.9H3
		c-0.8,0-1.5-0.3-2.1-0.9C0.3,96.3,0,95.6,0,94.8V63.3c0-0.8,0.3-1.6,0.9-2.2c0.6-0.6,1.3-0.9,2.1-0.9h31.5
		C35.4,60.2,36.1,60.5,36.7,61.1z M19.7,39.9c-0.6-0.6-0.9-1.3-0.9-2.1V13.7c0-0.8,0.3-1.6,0.9-2.2c0.6-0.6,1.3-0.9,2.1-0.9h24.2
		c0.8,0,1.6,0.3,2.2,0.9c0.6,0.6,0.9,1.3,0.9,2.2v24.2c0,0.8-0.3,1.5-0.9,2.1c-0.6,0.6-1.3,0.9-2.2,0.9H21.7
		C21,40.9,20.3,40.6,19.7,39.9z M66.8,46.9c0.6,0.6,0.9,1.3,0.9,2.1v19.1c0,0.8-0.3,1.5-0.9,2.1c-0.6,0.6-1.3,0.9-2.1,0.9h-19
		c-0.8,0-1.6-0.3-2.2-0.9c-0.6-0.6-0.9-1.3-0.9-2.1V49c0-0.8,0.3-1.5,0.9-2.1c0.6-0.6,1.3-0.9,2.2-0.9h19
		C65.5,46,66.2,46.3,66.8,46.9z M62.6,78.6c0.6,0.6,0.9,1.3,0.9,2.2v11.5c0,0.8-0.3,1.4-0.9,2.1c-0.6,0.6-1.3,0.9-2.1,0.9H48.9
		c-0.8,0-1.5-0.3-2.1-0.9c-0.6-0.6-0.9-1.3-0.9-2.1V80.7c0-0.8,0.3-1.6,0.9-2.2c0.6-0.6,1.3-0.9,2.1-0.9h11.5
		C61.3,77.7,62,78,62.6,78.6z M71.4,21.1c-0.6,0.6-1.3,0.9-2.1,0.9H57.7c-0.8,0-1.5-0.3-2.1-0.9c-0.6-0.6-0.9-1.3-0.9-2.1V7.5
		c0-0.8,0.3-1.5,0.9-2.1c0.6-0.6,1.3-0.9,2.1-0.9h11.5c0.8,0,1.5,0.3,2.1,0.9c0.6,0.6,0.9,1.3,0.9,2.1V19
		C72.2,19.8,71.9,20.5,71.4,21.1z M87.3,40.7c-0.6,0.6-1.3,0.9-2.2,0.9H73.7c-0.8,0-1.6-0.3-2.2-0.9c-0.6-0.6-0.9-1.3-0.9-2.1V27
		c0-0.8,0.3-1.5,0.9-2.1c0.6-0.6,1.3-0.9,2.2-0.9h11.4c0.8,0,1.6,0.3,2.2,0.9c0.6,0.6,0.9,1.3,0.9,2.1v11.5
		C88.2,39.4,87.9,40.1,87.3,40.7z M94.3,46.9c0.6,0.6,0.9,1.3,0.9,2.1v11.5c0,0.8-0.3,1.5-0.9,2.1c-0.6,0.6-1.3,0.9-2.1,0.9H80.7
		c-0.8,0-1.5-0.3-2.1-0.9c-0.6-0.6-0.9-1.3-0.9-2.1V49c0-0.8,0.3-1.5,0.9-2.1c0.6-0.6,1.3-0.9,2.1-0.9h11.5
		C93.1,46,93.8,46.3,94.3,46.9z M99.1,3.1c0.6,0.6,0.9,1.3,0.9,2.1V14c0,0.8-0.3,1.6-0.9,2.2c-0.6,0.6-1.3,0.9-2.2,0.9h-8.8
		c-0.8,0-1.5-0.3-2.1-0.9c-0.6-0.6-0.9-1.3-0.9-2.2V5.2c0-0.8,0.3-1.5,0.9-2.1c0.6-0.6,1.3-0.9,2.1-0.9h8.8
		C97.8,2.2,98.5,2.5,99.1,3.1z"/>
</g>
</svg>
