<?xml version="1.0" encoding="utf-8"?>
<!-- Generator: Adobe Illustrator 19.0.0, SVG Export Plug-In . SVG Version: 6.00 Build 0)  -->
<svg version="1.1" id="Layer_1" xmlns="http://www.w3.org/2000/svg" xmlns:xlink="http://www.w3.org/1999/xlink" x="0px" y="0px"
	 viewBox="0 0 20 20" style="enable-background:new 0 0 20 20;" xml:space="preserve">
<style type="text/css">
	.st0{fill:#9A9999;}
</style>
<path id="XMLID_624_" class="st0" d="M0,4.9V4.1c0-0.6,0.3-0.9,0.9-0.9H19c0.6,0,1,0.3,0.9,0.9l0,0.3c0,0.3,0,0.5-0.1,0.7
	c-0.1,0.1-0.2,0.3-0.4,0.5l-0.2,0.2l-9,9c-0.1,0.1-0.2,0.2-0.3,0.2c-0.1,0-0.2-0.1-0.3-0.2c-1.4-1.4-3.5-3.5-6.3-6.3
	C1.9,7,0.8,5.9,0.1,5.2C0,5.1,0,5,0,4.9z M0,6.6c1.7,1.7,3,3.1,3.9,3.9L0,14.4V6.6z M19.8,15.7c0.1,0.1,0.2,0.2,0.2,0.3
	c0,0.1,0,0.2-0.1,0.4c-0.1,0.3-0.3,0.4-0.7,0.5H0.9c-0.5,0-0.8-0.2-0.9-0.6c0-0.2,0-0.3,0.1-0.4l4.5-4.5c0,0,0.1-0.1,0.1-0.1
	c0.1,0.1,0.1,0.2,0.2,0.2L9,15.5c0.3,0.3,0.6,0.5,1,0.5c0.4,0,0.7-0.2,1-0.5l4.1-4.1c0,0,0.1-0.1,0.1-0.2l0.1,0.1
	c0,0,0.1,0.1,0.1,0.1C17.4,13.3,18.8,14.7,19.8,15.7z M7.3,8.3c0,0.4,0.1,0.7,0.3,1.1C7.8,9.7,8,9.9,8.2,10.1
	c0.3,0.2,0.5,0.3,0.9,0.4c0.3,0.1,0.6,0.1,1,0c0.1,0,0.2,0,0.4,0c0.2,0,0.3-0.1,0.4-0.1c0.1,0,0.2-0.1,0.4-0.1
	c0.1,0,0.2-0.1,0.3-0.1c0,0,0-0.1-0.1-0.2l-0.2-0.4c-0.2,0.1-0.3,0.2-0.5,0.2c-0.1,0-0.3,0.1-0.6,0.1c-0.3,0-0.5,0-0.7,0
	C9.2,9.7,9,9.6,8.8,9.5C8.6,9.4,8.5,9.2,8.4,9C8.2,8.7,8.1,8.5,8.1,8.2c0-0.4,0-0.7,0.1-1c0.1-0.3,0.2-0.6,0.5-0.9
	C8.9,6,9.1,5.7,9.4,5.6c0.4-0.2,0.7-0.3,1.1-0.3c0.6,0,1,0,1.3,0.3c0.3,0.3,0.5,0.6,0.6,1.1c0,0.2,0,0.4,0,0.6
	c0,0.2-0.1,0.4-0.1,0.5c-0.1,0.2-0.2,0.3-0.3,0.4c-0.1,0.1-0.3,0.2-0.4,0.2c-0.1,0-0.2,0-0.2,0L11.6,6c-0.2-0.1-0.4-0.1-0.5-0.1
	c-0.1,0-0.2,0-0.4,0h-0.2C10.2,6,10,6.1,9.8,6.2C9.5,6.3,9.3,6.5,9.2,6.6C9.1,6.8,9,7.1,8.9,7.3C8.8,7.6,8.8,7.9,8.8,8.2
	c0,0.2,0.1,0.3,0.1,0.5C9,8.7,9.1,8.8,9.2,9C9.3,9,9.4,9.1,9.5,9.1c0.1,0,0.3,0,0.4,0c0.2,0,0.4-0.1,0.5-0.1
	c0.2-0.1,0.3-0.2,0.4-0.2C11.1,9,11.3,9,11.6,9c0.3,0,0.6-0.1,0.8-0.3c0.2-0.2,0.4-0.3,0.5-0.6c0.2-0.2,0.3-0.5,0.3-0.8
	c0-0.3,0.1-0.6,0-0.8c0-0.4-0.1-0.7-0.3-1c-0.2-0.3-0.4-0.5-0.6-0.7c-0.2-0.2-0.5-0.3-0.8-0.3c-0.3-0.1-0.6-0.1-0.9-0.1
	C10,4.6,9.5,4.8,9,5C8.6,5.3,8.2,5.6,8,5.9C7.7,6.3,7.5,6.7,7.4,7.1C7.3,7.6,7.3,7.9,7.3,8.3z M10.8,6.7l-0.1,1.7
	c-0.1,0.1-0.2,0.1-0.2,0.1l-0.2,0c-0.1,0-0.2,0-0.3-0.1C9.8,8.3,9.7,8.1,9.7,7.9c0-0.1,0-0.3,0-0.5c0-0.1,0.1-0.2,0.1-0.4
	C9.9,7,10,6.9,10.1,6.8c0.1-0.1,0.2-0.1,0.4-0.1H10.8z M16.1,10.5L20,6.6v7.8L16.1,10.5z"/>
</svg>
