<?xml version="1.0" encoding="utf-8"?>
<!-- Generator: Adobe Illustrator 19.0.0, SVG Export Plug-In . SVG Version: 6.00 Build 0)  -->
<svg version="1.1" id="Layer_1" xmlns="http://www.w3.org/2000/svg" xmlns:xlink="http://www.w3.org/1999/xlink" x="0px" y="0px"
	 viewBox="0 0 20 20" style="enable-background:new 0 0 20 20;" xml:space="preserve">
<style type="text/css">
	.st0{fill:#9A9999;}
</style>
<path id="XMLID_133_" class="st0" d="M17,8.8V20H2.3V8.8h1.3V6.1c0-1.1,0.3-2.1,0.8-3C5,2.1,5.7,1.4,6.6,0.8C7.6,0.3,8.6,0,9.7,0
	s2.1,0.3,3,0.8c0.9,0.5,1.7,1.3,2.2,2.2c0.5,0.9,0.8,1.9,0.8,3v2.7H17z M5.9,8.8h7.6V6.1c0-0.7-0.2-1.3-0.5-1.9
	c-0.3-0.6-0.8-1-1.4-1.4C11,2.5,10.4,2.3,9.7,2.3C9,2.3,8.4,2.5,7.8,2.8c-0.6,0.3-1,0.8-1.4,1.4S5.9,5.4,5.9,6.1V8.8z M10.4,13.8
	c0.2-0.1,0.4-0.3,0.5-0.5c0.1-0.2,0.2-0.4,0.2-0.7c0-0.4-0.1-0.7-0.4-1c-0.3-0.3-0.6-0.4-1-0.4c-0.4,0-0.7,0.1-1,0.4
	c-0.3,0.3-0.4,0.6-0.4,1c0,0.2,0.1,0.5,0.2,0.7c0.1,0.2,0.3,0.4,0.5,0.5l-0.3,3.1h2.1L10.4,13.8z"/>
</svg>
