<?xml version="1.0" encoding="utf-8"?>
<!-- Generator: Adobe Illustrator 19.0.0, SVG Export Plug-In . SVG Version: 6.00 Build 0)  -->
<svg version="1.1" id="Layer_1" xmlns="http://www.w3.org/2000/svg" xmlns:xlink="http://www.w3.org/1999/xlink" x="0px" y="0px"
	 viewBox="-287 410.9 20 20" style="enable-background:new -287 410.9 20 20;" xml:space="preserve">
<style type="text/css">
	.st0{fill:#FFFFFF;}
</style>
<path class="st0" d="M-271.8,417.5v12.7c0,0.3-0.1,0.5-0.2,0.6c-0.1,0.1-0.3,0.2-0.6,0.2h-12.3c-0.3,0-0.5-0.1-0.6-0.2
	c-0.1-0.1-0.2-0.3-0.2-0.6V415c0-0.5,0.2-0.7,0.7-0.7h9.8c0.3,0,0.5,0.1,0.6,0.3l1.2,1.2c0.5,0.5,0.9,0.9,1.2,1.2
	C-271.8,417-271.7,417.2-271.8,417.5z M-274.9,424.5c0.1-0.1,0.1-0.1,0-0.2c0-0.1-0.1-0.2-0.3-0.2h-6.9c-0.1,0-0.2,0-0.3,0.1
	c-0.1,0-0.1,0.1-0.1,0.2c0,0.1,0,0.1,0.1,0.2c0.1,0,0.1,0,0.2,0h6.1c0.4,0,0.7,0,0.9,0C-275,424.6-275,424.6-274.9,424.5z
	 M-282.5,419.6c0,0.2,0.1,0.2,0.3,0.2c0.2,0,0.5,0,0.9,0h0.9c0.4,0,0.7,0,0.9,0c0.2,0,0.3-0.1,0.3-0.2c0-0.2-0.1-0.2-0.3-0.2
	c-0.9,0-1.8,0-2.7,0C-282.4,419.4-282.5,419.5-282.5,419.6z M-274.9,422.1c0-0.1,0-0.1,0-0.2c0-0.1-0.1-0.1-0.3-0.1h-7
	c-0.2,0-0.3,0.1-0.3,0.2c0,0.1,0,0.1,0.1,0.2c0,0,0.1,0.1,0.2,0.1l0.2,0h5.7c0.5,0,0.9,0,1.2,0C-275,422.2-274.9,422.2-274.9,422.1z
	 M-275,426.6c0,0-0.1,0-0.2,0h-7.1c-0.1,0-0.1,0-0.2,0.1c0,0-0.1,0.1-0.1,0.2c0,0.2,0.1,0.2,0.2,0.2c0,0,0.1,0,0.1,0l5.9,0
	c0.5,0,0.8,0,1.1,0c0.1,0,0.2-0.1,0.2-0.2C-274.9,426.7-274.9,426.6-275,426.6z M-268.4,427c0,0.2-0.1,0.3-0.2,0.4
	c-0.1,0.1-0.2,0.1-0.4,0.1c-0.3,0-0.7,0-1.2,0c-0.1,0-0.2-0.1-0.2-0.2v-0.9c0-0.1,0-0.1,0-0.1c0,0,0.1,0,0.1,0h0c0.2,0,0.3,0,0.4,0
	c0.1,0,0.1-0.1,0.1-0.1c0-0.1,0-0.2,0-0.4v-11.2c0-0.1,0-0.2,0-0.2c0,0-0.1-0.1-0.2,0h-1.6c-0.2,0-0.3,0-0.3-0.1
	c-0.1-0.1-0.1-0.2-0.1-0.3v-0.5c0-0.5,0-0.8,0-1.1c0-0.1,0-0.2,0-0.2c0,0-0.1,0-0.2,0h-8.5c-0.2,0-0.3,0-0.3,0c0,0,0,0.1,0,0.2v0.2
	c0,0.2,0,0.3-0.1,0.3c0,0-0.1,0-0.3,0c-0.3,0-0.5,0-0.6,0c-0.1,0-0.2-0.1-0.2-0.2v-0.4c0-0.3,0-0.6,0-0.8c0-0.4,0.2-0.7,0.7-0.7h9.8
	c0.3,0,0.6,0.1,0.8,0.3c0.5,0.5,1.3,1.3,2.3,2.2c0.2,0.2,0.3,0.4,0.3,0.7c0,2.1,0,4.2,0,6.3V427z"/>
<path class="st0" d="M-386.2,514.8c0,0.1-0.1,0.2-0.2,0.3l-3.3,2.6c-0.1,0.1-0.2,0.1-0.3,0c-0.1,0-0.1-0.2-0.1-0.4v-0.4
	c0-0.4,0-0.7,0-0.9c0-0.1,0-0.2-0.1-0.2s-0.1,0-0.2,0h-21.6c-0.8,0-1.1-0.4-1.1-1.2v-19.4c0-0.2,0-0.3,0-0.4c0,0-0.1,0-0.4,0h-1.2
	c-0.2,0-0.3-0.1-0.3-0.2c0-0.1,0-0.2,0.1-0.3l2.6-3.4c0.2-0.2,0.3-0.2,0.5,0l2.6,3.4c0,0.1,0.1,0.1,0.1,0.2s0,0.1,0,0.1
	c0,0-0.1,0.1-0.1,0.1c0,0-0.1,0-0.2,0h-1.4c-0.1,0-0.2,0-0.2,0c0,0-0.1,0.1-0.1,0.2v18.4c0,0.2,0,0.3,0.1,0.3c0,0,0.1,0.1,0.3,0.1
	h20.3c0.1,0,0.2,0,0.3-0.1c0,0,0.1-0.1,0.1-0.3c0-0.2,0-0.5,0-0.9v-0.4c0-0.1,0-0.2,0-0.2c0,0,0.1-0.1,0.1-0.1c0.1,0,0.1,0,0.3,0.1
	l1.7,1.3c0.7,0.6,1.3,1,1.7,1.3C-386.3,514.6-386.2,514.7-386.2,514.8z M-410,501.6l2.6-2.6c0.1-0.1,0.1-0.1,0.2-0.1
	s0.1,0.1,0.2,0.2l3.7,4.6c0.1,0.1,0.1,0.1,0.2,0.1s0.1-0.1,0.2-0.1c0.3-0.5,0.9-1.2,1.6-2.1l0.6-0.8l0.5-0.7
	c0.1-0.2,0.3-0.2,0.5-0.2l1.6,0.4c0.8,0.2,1.4,0.3,1.8,0.5c0.1,0,0.2,0,0.3,0c0.1,0,0.1-0.1,0.2-0.1l4.5-3.7
	c0.1-0.1,0.2-0.1,0.2-0.1v1.2c0,1.6,0,2.8,0,3.7c0,0.2-0.1,0.3-0.2,0.4c-1.5,1-3,2.2-4.6,3.4c-0.1,0.1-0.3,0.2-0.5,0.1l-3.3-0.8
	c-0.1,0-0.3,0-0.4,0c-0.1,0-0.2,0.1-0.3,0.2c-0.4,0.5-1,1.3-1.9,2.4l-0.7,0.8c-0.1,0.1-0.2,0.1-0.2,0.2s-0.1,0-0.2-0.1l-3.6-4.3
	c-0.1-0.1-0.2-0.2-0.2-0.2s-0.2,0-0.3,0.2c-0.4,0.4-1,1-1.8,1.8l-0.6,0.7c-0.1,0.1-0.2,0.1-0.3,0.2v-2.3c0-1.1,0-1.9,0-2.4
	C-410.2,501.8-410.2,501.7-410,501.6z M-391.2,509.1v1.1c0,1,0,1.7,0,2.2c0,0.1,0,0.2-0.1,0.3c0,0-0.1,0.1-0.3,0.1h-18
	c-0.2,0-0.4,0-0.4,0c-0.1,0-0.1-0.1-0.1-0.1s0-0.2,0-0.5c0-1.4,0-2.4,0-3.1c0-0.2,0.1-0.4,0.2-0.5l2.6-2.5c0.1-0.1,0.1-0.1,0.2-0.1
	c0.1,0,0.1,0.1,0.2,0.2l3.6,4.4c0.1,0.1,0.2,0.2,0.2,0.2c0.1,0,0.1-0.1,0.2-0.2c0.7-0.9,1.6-2.1,3-3.8c0.1-0.2,0.3-0.3,0.5-0.2
	l3,0.8c0.2,0.1,0.3,0,0.5-0.1l4.4-3.2c0.2-0.1,0.3-0.2,0.4-0.3C-391.2,506.2-391.2,507.9-391.2,509.1z"/>
</svg>
