<?xml version="1.0" encoding="utf-8"?>
<!-- Generator: Adobe Illustrator 19.0.0, SVG Export Plug-In . SVG Version: 6.00 Build 0)  -->
<svg version="1.1" id="Layer_1" xmlns="http://www.w3.org/2000/svg" xmlns:xlink="http://www.w3.org/1999/xlink" x="0px" y="0px"
	 viewBox="0 0 85 15" style="enable-background:new 0 0 85 15;" xml:space="preserve">
<style type="text/css">
	.st0{fill:#808081;}
</style>
<g id="XMLID_1_">
	<path id="XMLID_2_" class="st0" d="M3.7,5.1C2.9,4.6,2,4.1,0.8,3.6l0.1,0h1c0.9,0,1.6,0,2,0c0.3,0,0.6,0.1,0.7,0.3
		C4.9,4,5,4.2,5.1,4.6c0.2,1,0.4,2,0.6,3.1C5.2,6.7,4.6,5.8,3.7,5.1z M10,3.8C10,4,9.9,4.1,9.8,4.2l-2.8,7c-0.1,0.1-0.2,0.2-0.3,0.2
		H4.8c-0.2,0-0.2-0.1-0.3-0.2L3,5.2V5.1c0.2,0,0.4,0.2,0.8,0.5c0.3,0.3,0.7,0.7,1.1,1.2C5.5,7.5,5.9,8.3,6,9l1.8-5.2
		c0.1-0.2,0.2-0.2,0.3-0.2h1.7c0.1,0,0.2,0,0.3,0L10,3.8z M12.9,3.5c0,0,0.1,0,0.1,0l-1.2,7.6c0,0.1,0,0.2-0.1,0.2
		c0,0-0.1,0.1-0.2,0.1H9.9c-0.1,0-0.2,0-0.3,0l0.2-1.5l0.7-4.4c0.1-0.4,0.1-1,0.3-1.7c0-0.1,0.1-0.2,0.2-0.2H12.9z M18.9,9
		c0,0.5-0.2,0.9-0.6,1.3c-0.9,1-2,1.5-3.4,1.4c-0.5,0-1.1-0.1-1.7-0.4c-0.1,0-0.2-0.1-0.2-0.2l0.3-1.5c0.4,0.1,0.7,0.2,1,0.3
		c0.7,0.2,1.4,0.2,1.9,0c0.3-0.1,0.4-0.2,0.5-0.5c0.1-0.2,0-0.4-0.2-0.6c-0.1-0.1-0.4-0.3-0.7-0.5l-0.1-0.1C15.4,8,15.1,7.9,15,7.8
		c-0.3-0.2-0.5-0.4-0.7-0.6c-0.3-0.3-0.4-0.8-0.4-1.3S14,5,14.2,4.6c0.3-0.5,0.9-0.9,1.5-1.1c1-0.3,2.1-0.2,3.2,0.1
		c0.1,0,0.1,0.1,0.2,0.1c0,0,0,0.1,0,0.2c-0.1,0.2-0.1,0.5-0.2,0.9l-0.1,0.4l-0.1,0.2c-0.2-0.1-0.4-0.2-0.7-0.3
		c-0.5-0.2-1-0.2-1.6-0.1c-0.3,0.1-0.5,0.2-0.5,0.5c-0.1,0.3,0,0.5,0.3,0.6c0.2,0.1,0.5,0.3,0.8,0.5l0.4,0.2
		c0.4,0.3,0.7,0.5,0.9,0.7C18.8,8,19,8.5,18.9,9z M26.1,11.4h-1.6c-0.1,0-0.2,0-0.3,0c0,0-0.1-0.1-0.1-0.3l-0.2-0.8h-2.5
		c-0.1,0-0.1,0-0.2,0.1c0,0.1-0.1,0.2-0.2,0.4C21.1,11,21,11.1,21,11.2c0,0,0,0.1-0.1,0.1c0,0-0.1,0.1-0.1,0.1h-1.8l-0.1,0l0.2-0.5
		l3.1-7.1c0.1-0.1,0.1-0.2,0.3-0.2c0.6,0,1.2,0,1.8,0c0.1,0,0.2,0.1,0.2,0.2c0.5,2.3,0.8,4,1.1,5.2c0.2,0.7,0.3,1.5,0.5,2.2
		C26,11.2,26,11.3,26.1,11.4z M23.6,8.7c-0.1-0.5-0.3-1.3-0.5-2.3L23.1,6H23c-0.2,0.6-0.6,1.5-1.1,2.8H23.6z"/>
	<path id="XMLID_9_" class="st0" d="M54.8,5.4c0.4,1.3,0.4,2.6,0.1,3.9c-0.3,1.3-0.9,2.5-1.9,3.4c-0.9,1-2,1.7-3.3,2
		c-1.2,0.4-2.4,0.4-3.6,0.2c-1.2-0.3-2.3-0.8-3.2-1.5c1-1,1.7-2.1,2.1-3.5h-0.5c0,0-0.1,0-0.1,0.1c-0.3,0.8-0.7,1.5-1.3,2.3
		c-0.1,0.1-0.2,0.3-0.4,0.5l-0.2,0.3c-0.5-0.5-0.8-0.9-1.1-1.3c-0.2-0.3-0.4-0.8-0.7-1.4L40.6,10c0-0.1-0.1-0.1-0.1-0.2
		c0,0-0.1,0-0.2,0h-0.4c0.4,1.3,1.1,2.5,2.1,3.5c-0.9,0.8-1.9,1.3-3.1,1.5c-1.2,0.3-2.4,0.2-3.5-0.1c-1.2-0.3-2.3-0.9-3.3-1.8
		c-1-1-1.6-2.1-2-3.4c-0.4-1.3-0.4-2.5-0.1-3.8C30.4,4.4,31,3.3,32,2.3c0.9-1,2-1.6,3.3-2c1.2-0.3,2.4-0.4,3.6-0.1
		C40,0.4,41.1,0.9,42,1.7c-1,1-1.7,2.2-2.1,3.5h0.5c0.1,0,0.1-0.1,0.1-0.2c0.3-0.9,0.8-1.7,1.4-2.4c0.2-0.2,0.4-0.4,0.5-0.5
		C43,2.5,43.4,3,43.7,3.5c0.2,0.3,0.3,0.6,0.6,1.1L44.4,5c0.1,0.1,0.1,0.2,0.2,0.2h0.5c-0.4-1.3-1.1-2.5-2.1-3.5
		c0.8-0.7,1.8-1.2,3-1.5c1.2-0.3,2.3-0.3,3.5,0c1.3,0.3,2.4,0.9,3.3,1.8C53.7,2.9,54.4,4,54.8,5.4z M34,9.2c0.2-1,0.4-2.1,0.6-3.3
		h-0.4c-0.3,0-0.5,0-0.7,0c-0.1,0-0.1,0-0.2,0c0,0-0.1,0.1-0.1,0.1l-0.8,1.6c0,0,0,0.1-0.1,0.1l0,0l-0.2-1.9h-1.2l-0.6,3.3h0.8
		c0.2-1,0.3-1.8,0.4-2.3h0l0.2,2.3h0.6c0.1,0,0.2,0,0.2-0.1c0.3-0.8,0.6-1.4,0.8-1.7c0-0.1,0.1-0.2,0.1-0.3
		c-0.1,0.4-0.1,0.8-0.2,1.1c0,0.2-0.1,0.6-0.2,1.1H34z M36.3,9.3c0.2,0,0.3,0,0.3,0C36.7,9,36.8,8.5,36.9,8L37,7.6
		c0-0.6-0.2-1-0.7-1c-0.2,0-0.6,0-1.1,0l-0.3,0c0,0-0.1,0-0.1,0.1l-0.1,0.5c0.5,0,0.8-0.1,1-0.1c0.1,0,0.2,0,0.3,0.1
		c0,0,0.1,0.1,0.1,0.2v0.1c0,0,0,0-0.1,0.1c0,0-0.1,0-0.1,0c0,0-0.1,0-0.2,0c-0.1,0-0.2,0-0.2,0c-0.3,0-0.6,0.1-0.8,0.3
		s-0.3,0.4-0.4,0.6c-0.1,0.2,0,0.4,0.1,0.6c0.1,0.2,0.3,0.3,0.5,0.3c0.1,0,0.3,0,0.6,0c0.1,0,0.2,0,0.3,0
		C35.9,9.3,36.1,9.3,36.3,9.3z M35.5,8c0.1,0,0.3,0,0.5,0c0,0.2-0.1,0.4-0.2,0.5c-0.1,0.1-0.2,0.1-0.4,0.1c-0.1,0-0.2-0.1-0.3-0.1
		c0-0.1,0-0.2,0-0.3C35.3,8.1,35.4,8,35.5,8z M39,8.4c0-0.3-0.1-0.5-0.4-0.6c0,0-0.1-0.1-0.2-0.1l-0.2-0.1C38.1,7.5,38,7.4,38,7.2
		c0-0.1,0.1-0.1,0.1-0.1c0.1,0,0.1,0,0.2,0h0.6C39,6.9,39,6.8,39.1,6.6c-0.4-0.1-0.8-0.2-1.2-0.1c-0.3,0.1-0.5,0.2-0.6,0.3
		c-0.1,0.2-0.2,0.4-0.1,0.6c0,0.2,0.1,0.4,0.3,0.5c0.2,0.1,0.4,0.2,0.6,0.3c0.1,0.1,0.2,0.2,0.2,0.3c0,0.1-0.1,0.2-0.3,0.2
		c-0.2,0-0.5,0-1,0v0.1c0,0.2-0.1,0.3-0.1,0.5c0.5,0.1,1,0.1,1.4,0.1c0.2,0,0.3-0.1,0.4-0.2C38.9,8.9,39,8.6,39,8.4z M39.9,8.3
		l0.2-1.2c0.2,0,0.3-0.1,0.3-0.1c0,0,0.1-0.1,0.1-0.3l0-0.2c-0.2,0-0.3,0-0.4,0l0.1-0.7h-0.3c-0.2,0-0.4,0-0.4,0.1
		c-0.1,0-0.1,0.2-0.1,0.4l-0.5,2.3c0,0.2,0,0.4,0.1,0.5c0.1,0.1,0.2,0.2,0.4,0.3c0.1,0,0.3,0,0.5,0l0.2,0c0.1,0,0.1,0,0.1-0.1
		l0.1-0.5c-0.1,0-0.1,0-0.2,0C39.9,8.6,39.9,8.5,39.9,8.3z M42.7,9c0-0.2,0.1-0.3,0.1-0.4l-0.1,0l-1,0c-0.2,0-0.3-0.1-0.4-0.2
		c-0.1-0.1-0.1-0.3,0-0.4H43V7.3c0-0.4-0.2-0.6-0.5-0.7c-0.5-0.2-1-0.2-1.4,0.1c-0.2,0.1-0.4,0.4-0.5,0.7c-0.1,0.3-0.2,0.6-0.1,0.9
		c0.1,0.5,0.3,0.8,0.8,0.9c0.4,0.1,0.8,0.1,1.3,0C42.6,9.2,42.7,9.1,42.7,9L42.7,9z M41.3,7.5c0-0.2,0.1-0.3,0.2-0.4
		C41.7,7,41.8,7,42,7c0.2,0,0.3,0.2,0.3,0.5H41.3z M44.6,7.2C44.7,7.2,44.7,7.2,44.6,7.2c0.1-0.2,0.2-0.4,0.2-0.7
		c-0.2,0-0.5,0.1-0.7,0.3c0-0.1,0-0.2-0.1-0.2c-0.1,0-0.1,0-0.2,0h-0.2c-0.1,0-0.1,0-0.2,0c-0.1,0-0.1,0.1-0.2,0.1
		c-0.2,1.1-0.4,2-0.5,2.6h0.3c0.2,0,0.4,0,0.4-0.1c0,0,0.1-0.2,0.1-0.4V8.7l0.1-0.4C43.9,8,44,7.8,44,7.7
		C44.1,7.4,44.3,7.2,44.6,7.2C44.6,7.2,44.6,7.2,44.6,7.2z M45.9,6.9c0.3-0.3,0.7-0.4,1.1-0.2c0.1,0,0.1,0,0.2,0
		c0.1-0.1,0.2-0.2,0.4-0.4l-0.1-0.1c-0.2-0.2-0.5-0.3-0.8-0.4c-0.3,0-0.7,0-0.9,0.2c-0.7,0.4-1.1,1.1-1,2c0,0.6,0.3,0.9,0.7,1.2
		c0.5,0.2,1,0.2,1.5,0c-0.1-0.1-0.1-0.3-0.2-0.5l-0.1-0.2l-0.2,0.1c-0.2,0.1-0.4,0-0.6-0.1c-0.2-0.1-0.3-0.2-0.3-0.4
		C45.5,7.6,45.6,7.2,45.9,6.9z M49,9.2c0.2,0,0.3,0,0.4,0l0.1-0.4c0.1-0.6,0.2-1.1,0.3-1.4c0.1-0.6-0.2-0.9-0.8-1
		c-0.2,0-0.5,0-0.9,0l-0.3,0c0,0,0,0-0.1,0c0,0,0,0,0,0.1v0.1c0,0.2-0.1,0.3-0.1,0.5c0.1,0,0.1,0,0.2,0c0.4,0,0.8-0.1,1-0.1
		c0.2,0,0.3,0.1,0.2,0.4c-0.2,0-0.4,0-0.5,0c-0.3,0-0.6,0.1-0.8,0.2c-0.2,0.1-0.3,0.3-0.4,0.6c-0.1,0.3,0,0.5,0.1,0.6
		c0.1,0.2,0.3,0.3,0.5,0.3c0.1,0,0.3,0,0.6,0c0.1,0,0.2,0,0.2,0C48.7,9.2,48.8,9.3,49,9.2z M48.3,8c0.2,0,0.3,0,0.4,0
		c0,0.5-0.2,0.7-0.6,0.6C48,8.6,48,8.6,47.9,8.5c0,0,0-0.1,0-0.2s0-0.1,0.1-0.2C48,8.1,48.1,8,48.3,8z M51.3,7.2c0,0,0.1,0,0.1-0.1
		c0.1-0.3,0.1-0.5,0.2-0.6c-0.2-0.1-0.5,0-0.7,0.2l-0.1-0.1c0-0.1-0.1-0.1-0.1-0.1c-0.1,0-0.3,0-0.6,0l-0.5,2.8h0.3
		c0.2,0,0.3,0,0.4,0c0,0,0.1,0,0.1,0c0,0,0-0.1,0.1-0.1c0,0,0-0.1,0-0.2c0-0.1,0-0.2,0.1-0.2c0.1-0.5,0.2-0.8,0.3-1.1
		C50.9,7.4,51,7.2,51.3,7.2z M53.6,9.2h0.3l0.6-3.5h-0.8l-0.2,1l-0.1-0.1c-0.1-0.1-0.2-0.2-0.3-0.2c-0.2-0.1-0.5-0.1-0.7,0
		c-0.3,0.1-0.5,0.2-0.6,0.4c-0.2,0.3-0.4,0.7-0.4,1c-0.1,0.4,0,0.7,0.2,0.9c0.3,0.4,0.6,0.5,1,0.4c0.1-0.1,0.2-0.1,0.3-0.1l0.1,0.1
		C53,9.2,53,9.2,53.1,9.2C53.2,9.3,53.4,9.3,53.6,9.2z M53,7.2c0.1,0.1,0.2,0.2,0.2,0.3v0.1c0,0.3-0.1,0.6-0.3,0.8
		c-0.1,0.1-0.3,0.2-0.4,0.1c-0.2,0-0.2-0.1-0.3-0.3c0-0.2,0-0.3,0.1-0.5c0.1-0.2,0.2-0.3,0.3-0.4C52.8,7.1,52.9,7.1,53,7.2z"/>
	<path id="XMLID_25_" class="st0" d="M63.9,6.2c-0.2,0.4-0.5,0.7-0.9,0.9c-0.3,0.2-0.8,0.3-1.3,0.4c-0.2,0-0.5,0-0.8,0
		c-0.2,0-0.4,0.1-0.4,0.4c-0.1,0.2-0.1,0.6-0.2,1.1c0,0.1-0.1,0.2-0.2,0.2S60,9.2,59.9,9.2h-0.7c-0.1,0-0.2,0-0.2-0.1
		C58.9,9,58.9,9,58.9,8.9c0.3-1.2,0.5-2.1,0.6-2.7L60,4.3C60,4.1,60.2,4,60.4,4h1.1c0.4,0,0.7,0,0.9,0c0.4,0,0.8,0.1,1,0.2
		c0.4,0.2,0.6,0.5,0.7,1C64.1,5.6,64.1,5.9,63.9,6.2z M62.2,5c-0.2-0.1-0.3-0.1-0.5-0.1h-0.2c-0.1,0-0.2,0-0.2,0.1
		c-0.1,0.1-0.1,0.1-0.2,0.2l-0.2,1c0,0.1,0,0.2,0,0.2c0,0.1,0.1,0.1,0.2,0.1c0.3,0,0.5,0,0.8-0.1c0.5-0.1,0.7-0.4,0.7-0.8
		C62.7,5.3,62.5,5.1,62.2,5z M68,6.2c0,0.2-0.1,0.4-0.2,0.7l-0.4,1.9c0,0.1-0.1,0.2-0.2,0.2c-0.1,0.1-0.1,0.1-0.2,0.1h-0.6
		c-0.1,0-0.2,0-0.2-0.1c0-0.1-0.1-0.1,0-0.2V8.8C66.1,8.8,66,8.9,65.9,9c-0.4,0.3-0.9,0.4-1.4,0.3c-0.3,0-0.5-0.2-0.6-0.4
		c-0.2-0.2-0.2-0.4-0.2-0.7c0-0.4,0.2-0.7,0.4-0.9c0.2-0.2,0.4-0.3,0.7-0.4c0.2-0.1,0.5-0.1,0.9-0.2c0.2,0,0.5-0.1,0.9-0.1
		c0,0,0.1,0,0.1,0c0,0,0-0.1,0-0.1c0-0.2-0.1-0.4-0.3-0.4C66.1,6,65.8,6,65.5,6c-0.3,0-0.6,0.1-0.9,0.2c-0.2,0.1-0.2,0-0.2-0.2
		c0-0.2,0.1-0.3,0.1-0.5c0-0.1,0.2-0.2,0.3-0.3c0.5-0.1,1.1-0.1,1.6-0.1c0.4,0,0.8,0.1,1,0.2C67.9,5.5,68,5.8,68,6.2z M66.5,7.4
		C66.5,7.4,66.5,7.4,66.5,7.4l-0.4,0c-0.3,0-0.5,0.1-0.7,0.1C65.1,7.6,65,7.8,65,8.1c0,0.2,0.1,0.3,0.2,0.3c0.1,0,0.3,0.1,0.3,0.1
		c0.2,0,0.4-0.1,0.7-0.3c0.1,0,0.1-0.1,0.1-0.2l0.1-0.3C66.5,7.6,66.5,7.5,66.5,7.4C66.5,7.4,66.5,7.4,66.5,7.4z M72.8,5.4
		c0,0.1-0.1,0.2-0.1,0.3l0,0.1c-0.1,0.1-0.2,0.3-0.3,0.5l-2.6,4.4c-0.1,0.2-0.2,0.3-0.3,0.3S69.3,11,69.2,11h-0.8
		c-0.1,0-0.1,0-0.1-0.1c0,0,0-0.1,0-0.1c0-0.1,0.1-0.2,0.2-0.3L69,9.6C69,9.6,69,9.5,69,9.3V9.2c0-0.2-0.1-0.5-0.2-0.9l-0.5-2.8
		c0-0.1,0-0.2,0-0.2c0-0.1,0.1-0.1,0.2-0.1h0.6c0.3,0,0.5,0.1,0.5,0.4L70,7.5c0,0.1,0,0.1,0.1,0.1c0,0,0.1,0,0.1-0.1l1.1-1.8
		c0-0.1,0.1-0.1,0.1-0.2c0.1-0.2,0.3-0.3,0.6-0.3c0.3,0,0.5,0,0.8,0C72.8,5.2,72.9,5.3,72.8,5.4z M76.8,7.1
		c-0.4,0.2-0.9,0.3-1.6,0.4h-0.6c-0.1,0-0.1,0-0.2,0.1c-0.1,0.1-0.1,0.1-0.2,0.2l-0.3,1.1C74.1,9,74,9,73.9,9.1
		c-0.1,0.1-0.2,0.1-0.3,0.1H73c-0.2,0-0.3-0.1-0.3-0.3L73,7.5l0.7-3.2c0-0.1,0.1-0.2,0.2-0.2C74,4,74.1,4,74.2,4h1.3
		c0.3,0,0.6,0,0.8,0c0.4,0,0.8,0.1,1,0.3c0.3,0.2,0.5,0.5,0.5,0.9C77.9,6.1,77.6,6.7,76.8,7.1z M75.9,5c-0.2,0-0.4-0.1-0.7-0.1
		c-0.2,0-0.3,0.1-0.4,0.3l-0.2,1c0,0.1,0,0.1,0,0.2c0,0,0.1,0.1,0.1,0.1c0.1,0,0.1,0,0.2,0c0.2,0,0.4,0,0.6-0.1
		c0.4-0.1,0.6-0.4,0.7-0.8C76.5,5.3,76.3,5.1,75.9,5z M81.8,6.3c0,0.1,0,0.3-0.1,0.6l-0.5,2c-0.1,0.2-0.2,0.3-0.4,0.3h-0.6
		c-0.2,0-0.3-0.1-0.3-0.3V8.8c-0.1,0-0.2,0.1-0.3,0.2c-0.4,0.3-0.9,0.4-1.4,0.3c-0.3-0.1-0.5-0.2-0.6-0.4c-0.2-0.2-0.2-0.5-0.2-0.7
		c0.1-0.6,0.4-1,1-1.2c0.2-0.1,0.6-0.2,1-0.3h0c0.2,0,0.5-0.1,0.8-0.1h0.1c0,0,0.1,0,0.1,0c0,0,0-0.1,0-0.1c0-0.2-0.1-0.4-0.3-0.4
		C79.9,6,79.6,6,79.3,6c-0.4,0.1-0.6,0.1-0.8,0.2c-0.1,0-0.1,0-0.2,0c0,0,0-0.1,0-0.2c0-0.1,0.1-0.3,0.1-0.5
		c0.1-0.2,0.2-0.3,0.4-0.3c0.6-0.1,1.2-0.2,1.7-0.1c0.2,0,0.4,0,0.7,0.1C81.6,5.5,81.8,5.8,81.8,6.3z M80.2,7.4l-0.5,0.1
		c-0.2,0-0.4,0.1-0.6,0.2c-0.3,0.1-0.4,0.3-0.4,0.6c0,0.2,0.1,0.2,0.2,0.3c0.1,0,0.3,0.1,0.4,0.1c0.2,0,0.4-0.1,0.7-0.2
		c0.1,0,0.2-0.1,0.2-0.2C80.2,7.9,80.3,7.6,80.2,7.4C80.3,7.4,80.3,7.4,80.2,7.4z M84.2,4.1c0.1,0.1,0.1,0.1,0.1,0.2l-1,4.6
		c0,0.1-0.1,0.2-0.2,0.2c-0.1,0.1-0.1,0.1-0.2,0.1h-0.6c-0.1,0-0.2,0-0.2-0.1C81.9,9,81.9,9,81.9,8.9l0.8-3.4
		c0.1-0.3,0.2-0.6,0.3-1.1c0-0.1,0.1-0.2,0.2-0.2C83.2,4,83.2,4,83.3,4H84C84.1,4,84.1,4,84.2,4.1z"/>
</g>
</svg>
