<?xml version="1.0" encoding="utf-8"?>
<!-- Generator: Adobe Illustrator 19.0.0, SVG Export Plug-In . SVG Version: 6.00 Build 0)  -->
<svg version="1.1" id="Layer_1" xmlns="http://www.w3.org/2000/svg" xmlns:xlink="http://www.w3.org/1999/xlink" x="0px" y="0px"
	 viewBox="-287 410.9 20 20" style="enable-background:new -287 410.9 20 20;" xml:space="preserve">
<style type="text/css">
	.st0{fill:#FFFFFF;}
</style>
<path class="st0" d="M-286.6,417.7c-0.1,0.1-0.1,0.1-0.2,0.2c-0.1,0-0.1,0-0.2-0.1c-0.1-0.1-0.1-0.2,0-0.2c0,0,0.1-0.1,0.2-0.1
	l0.1-0.1l4.3-3.6c0.2-0.1,0.3-0.2,0.4-0.2c0.6-0.1,1.4-0.2,2.4-0.3h0.1c0.1,0,0.1,0,0.2,0c0,0,0,0.1,0,0.1c0,0.1,0,0.1-0.1,0.2
	c0,0-0.1,0-0.2,0h-0.1c-0.6,0.1-1.3,0.2-2,0.2c-0.2,0-0.4,0.1-0.6,0.3C-284,415.5-285.4,416.7-286.6,417.7L-286.6,417.7z
	 M-286.2,418.1c-0.1,0.1-0.1,0.1-0.2,0.1c-0.1,0-0.1,0-0.2-0.1c-0.1-0.1-0.1-0.1-0.1-0.2c0,0,0.1-0.1,0.1-0.1l0.1-0.1l1.4-1.2
	c1.2-1.1,2.2-1.8,2.8-2.4c0.1-0.1,0.3-0.2,0.5-0.2c0.1,0,0.3,0,0.6-0.1c0.3,0,0.5,0,0.6-0.1c0.1,0,0.4-0.1,0.6-0.1l0.3,0
	c0.1,0,0.2,0,0.2,0.2c0,0.1-0.1,0.1-0.1,0.1c0,0-0.1,0-0.2,0.1l-0.6,0.1c-0.4,0.1-0.7,0.1-1,0.1c-0.3,0-0.5,0.1-0.7,0.2
	c-0.2,0.1-0.4,0.2-0.6,0.4C-283.7,415.9-284.9,417-286.2,418.1L-286.2,418.1z M-267.7,418.4c0,0.1,0,0.2-0.1,0.3
	c-0.7,0.9-1.3,1.5-1.6,2c-0.1,0.1-0.2,0.2-0.3,0.2c-0.1,0-0.2-0.1-0.3-0.2c-0.2-0.2-0.6-0.5-1.1-0.9l-0.6-0.5v7.8c0,0.3,0,0.5,0,0.6
	c0,0.1-0.1,0.2-0.2,0.3c-0.1,0.1-0.3,0.1-0.6,0.2c-0.8,0.2-1.7,0.3-2.7,0.4c-1.2,0.1-2.2,0.1-3.1,0c-1.1-0.1-2.1-0.2-3-0.4
	c-0.3-0.1-0.5-0.1-0.6-0.2c-0.1-0.1-0.2-0.2-0.2-0.3c0-0.1,0-0.3,0-0.6l0-7.8l-0.6,0.5c-0.5,0.4-0.9,0.7-1.1,1
	c-0.1,0.1-0.2,0.1-0.3,0.1c-0.1,0-0.2-0.1-0.3-0.2c-0.4-0.5-0.9-1.1-1.7-2c-0.1-0.1-0.1-0.2-0.1-0.3c0-0.1,0.1-0.1,0.2-0.2
	c0.9-0.8,2.4-2,4.2-3.5c0.1-0.1,0.3-0.2,0.4-0.2l0.4-0.1c0.4,0,0.7-0.1,0.8-0.1c0.4-0.1,0.6-0.1,0.8,0c0.3,0.1,0.5,0.2,0.7,0.5
	c0.3,0.4,0.7,0.7,1.1,0.8c0.5,0.1,0.9,0.1,1.4-0.1c0.5-0.2,0.8-0.5,1.1-0.9c0.1-0.2,0.2-0.3,0.3-0.3c0.1-0.1,0.3-0.1,0.4,0
	c0.1,0,0.3,0.1,0.5,0.1c0.5,0,1,0.1,1.5,0.3c0.4,0.2,0.9,0.5,1.3,0.9c0.5,0.5,1.2,1.1,2.3,1.9c0.4,0.3,0.7,0.5,0.8,0.7
	C-267.8,418.3-267.8,418.4-267.7,418.4z M-278.4,414.9c-0.4-0.3-0.7-0.8-0.7-1.3l0-0.1c0-0.1,0-0.2,0-0.2c0-0.1,0.1-0.1,0.2-0.2
	c0.1,0,0.2,0,0.2,0c0,0,0.1,0.1,0.1,0.2l0,0.1c0.1,0.4,0.3,0.8,0.6,1c0.3,0.3,0.7,0.4,1,0.4c0.4,0,0.7-0.1,1-0.4
	c0.3-0.3,0.5-0.6,0.6-1l0-0.1c0-0.1,0-0.2,0.1-0.2c0,0,0.1-0.1,0.2,0c0.1,0,0.2,0.1,0.2,0.1c0,0,0,0.1,0,0.2l0,0.1
	c-0.1,0.5-0.3,0.9-0.7,1.3c-0.4,0.3-0.9,0.5-1.4,0.5C-277.5,415.4-278,415.2-278.4,414.9z M-273.7,416.9c-0.1,0-0.2-0.1-0.4,0h-0.3
	c-0.2,0-0.4,0-0.5,0c-0.1,0.1-0.2,0.2-0.1,0.5c0,0.2,0.1,0.4,0.3,0.6c0.2,0.2,0.3,0.3,0.4,0.3s0.3-0.1,0.4-0.3
	c0.1-0.2,0.2-0.4,0.3-0.6C-273.5,417.1-273.6,417-273.7,416.9z M-267.5,417.8c0.1,0.1,0.2,0.1,0.2,0.1c0,0.1,0,0.1,0,0.2
	c-0.1,0.1-0.1,0.1-0.2,0.1c0,0-0.1-0.1-0.2-0.1l-0.1-0.1c-1.3-1.1-2.6-2.2-3.9-3.3c-0.4-0.3-0.8-0.5-1.1-0.5c-0.3,0-0.7-0.1-1.3-0.1
	l-0.4-0.1c-0.1,0-0.1,0-0.2,0c0,0-0.1-0.1-0.1-0.1c0-0.1,0-0.1,0.1-0.1c0,0,0.1,0,0.2,0h0.1l0.4,0c0.9,0.1,1.5,0.2,2,0.3
	c0.1,0,0.2,0.1,0.4,0.2C-269.9,415.8-268.5,417-267.5,417.8L-267.5,417.8z M-267.2,417.4c0.1,0.1,0.2,0.1,0.2,0.1c0,0,0,0.1-0.1,0.2
	c-0.1,0.1-0.1,0.1-0.2,0.1c0,0-0.1-0.1-0.2-0.2l-0.1-0.1l-1.1-0.9c-1.4-1.1-2.4-2-3-2.6c-0.1-0.1-0.3-0.2-0.5-0.2
	c-0.1,0-0.3-0.1-0.5-0.1l-0.2,0c-0.3-0.1-0.8-0.1-1.4-0.2l-0.1,0c-0.1,0-0.2-0.1-0.2-0.2c0-0.1,0.1-0.1,0.2-0.1l2.5,0.3
	c0.1,0,0.2,0.1,0.4,0.2C-270.2,414.9-268.7,416.1-267.2,417.4L-267.2,417.4z"/>
<path class="st0" d="M-404.1,402.7c0.2,0.2,0.2,0.3,0.2,0.6v8c0,0.2-0.1,0.4-0.2,0.5s-0.3,0.2-0.6,0.2h-8c-0.2,0-0.4-0.1-0.5-0.2
	c-0.1-0.1-0.2-0.3-0.2-0.5v-8c0-0.2,0.1-0.4,0.2-0.6c0.1-0.2,0.3-0.2,0.5-0.2h8C-404.4,402.4-404.2,402.5-404.1,402.7z
	 M-408.4,397.3c-0.2-0.2-0.2-0.3-0.2-0.5v-6.1c0-0.2,0.1-0.4,0.2-0.6c0.1-0.2,0.3-0.2,0.5-0.2h6.1c0.2,0,0.4,0.1,0.6,0.2
	c0.2,0.2,0.2,0.3,0.2,0.6v6.1c0,0.2-0.1,0.4-0.2,0.5c-0.2,0.1-0.3,0.2-0.6,0.2h-6.1C-408.1,397.5-408.2,397.5-408.4,397.3z
	 M-396.4,399.1c0.1,0.1,0.2,0.3,0.2,0.5v4.8c0,0.2-0.1,0.4-0.2,0.5c-0.1,0.2-0.3,0.2-0.5,0.2h-4.8c-0.2,0-0.4-0.1-0.6-0.2
	c-0.2-0.1-0.2-0.3-0.2-0.5v-4.8c0-0.2,0.1-0.4,0.2-0.5c0.2-0.1,0.3-0.2,0.6-0.2h4.8C-396.7,398.8-396.6,398.9-396.4,399.1z
	 M-397.5,407.1c0.1,0.2,0.2,0.3,0.2,0.6v2.9c0,0.2-0.1,0.4-0.2,0.5c-0.1,0.2-0.3,0.2-0.5,0.2h-2.9c-0.2,0-0.4-0.1-0.5-0.2
	c-0.1-0.1-0.2-0.3-0.2-0.5v-2.9c0-0.2,0.1-0.4,0.2-0.6c0.1-0.2,0.3-0.2,0.5-0.2h2.9C-397.8,406.9-397.6,406.9-397.5,407.1z
	 M-395.3,392.5c-0.1,0.2-0.3,0.2-0.5,0.2h-2.9c-0.2,0-0.4-0.1-0.5-0.2c-0.1-0.1-0.2-0.3-0.2-0.5v-2.9c0-0.2,0.1-0.4,0.2-0.5
	c0.1-0.1,0.3-0.2,0.5-0.2h2.9c0.2,0,0.4,0.1,0.5,0.2s0.2,0.3,0.2,0.5v2.9C-395,392.2-395.1,392.4-395.3,392.5z M-391.2,397.5
	c-0.2,0.1-0.3,0.2-0.6,0.2h-2.9c-0.2,0-0.4-0.1-0.6-0.2c-0.2-0.1-0.2-0.3-0.2-0.5V394c0-0.2,0.1-0.4,0.2-0.5
	c0.2-0.1,0.3-0.2,0.6-0.2h2.9c0.2,0,0.4,0.1,0.6,0.2c0.2,0.1,0.2,0.3,0.2,0.5v2.9C-391,397.2-391.1,397.3-391.2,397.5z
	 M-389.4,399.1c0.1,0.1,0.2,0.3,0.2,0.5v2.9c0,0.2-0.1,0.4-0.2,0.5c-0.1,0.1-0.3,0.2-0.5,0.2h-2.9c-0.2,0-0.4-0.1-0.5-0.2
	c-0.1-0.1-0.2-0.3-0.2-0.5v-2.9c0-0.2,0.1-0.4,0.2-0.5c0.2-0.1,0.3-0.2,0.5-0.2h2.9C-389.8,398.8-389.6,398.9-389.4,399.1z
	 M-388.2,387.9c0.2,0.1,0.2,0.3,0.2,0.5v2.2c0,0.2-0.1,0.4-0.2,0.6c-0.2,0.2-0.3,0.2-0.6,0.2h-2.2c-0.2,0-0.4-0.1-0.5-0.2
	c-0.1-0.2-0.2-0.3-0.2-0.6v-2.2c0-0.2,0.1-0.4,0.2-0.5c0.2-0.1,0.3-0.2,0.5-0.2h2.2C-388.6,387.7-388.4,387.8-388.2,387.9z"/>
<path class="st0" d="M-408.2,439.1c-0.3,0.5-0.5,1-0.6,1.7l0,0.3c0,0.5,0,0.8,0,1c0,0.1,0,0.2,0,0.2c0,0-0.1,0.1-0.2,0.1l-1.2,0
	c-1.4,0-2.4-0.1-3.1-0.2c-0.4,0-0.7-0.1-0.9-0.2c-0.5-0.1-0.8-0.5-0.9-1c0-0.1,0-0.1-0.1-0.1v-1c0-0.1,0.1-0.2,0.1-0.3
	c0.1-0.9,0.6-1.6,1.4-2c0.3-0.2,0.8-0.4,1.5-0.7l0.4-0.2c0.3-0.2,0.6-0.4,0.7-0.6c0.1-0.3,0.1-0.6,0-0.9c-0.2-0.5-0.3-0.9-0.4-1.3
	c0-0.1-0.1-0.2-0.3-0.2c-0.2,0-0.3-0.1-0.3-0.2c-0.2-0.6-0.4-1.1-0.4-1.4c0-0.2,0-0.4,0.1-0.4s0.2-0.1,0.4-0.1c0.1,0,0.1,0,0.2,0
	s0-0.1,0-0.2v0c-0.1-0.4-0.1-0.8-0.1-1.2c0-0.7,0.2-1.4,0.7-1.9c0.5-0.6,1.1-0.9,1.8-1c0.6-0.1,1.1,0,1.7,0.2c0.5,0.2,1,0.6,1.3,1.1
	s0.5,1,0.5,1.6c0,0.3,0,0.7-0.1,1.2c0,0.1,0,0.2,0,0.3s0.1,0,0.3,0c0.1,0,0.2,0,0.2,0.1c0.1,0.1,0.1,0.1,0.1,0.2
	c0.1,0.1,0.1,0.3,0,0.4l-0.3,1.1c-0.1,0.2-0.2,0.3-0.4,0.3c-0.1,0-0.1,0.1-0.2,0.2c-0.1,0.3-0.2,0.8-0.4,1.4c-0.1,0.3-0.1,0.6,0,0.9
	s0.3,0.5,0.6,0.6c0.1,0.1,0.3,0.2,0.6,0.3l0.4,0.2c0,0.1-0.1,0.1-0.2,0.1l-0.1,0.1c-0.4,0.2-0.9,0.4-1.5,0.7
	C-407.5,438.2-407.9,438.6-408.2,439.1z M-392.8,439.9c0.2,0.8,0.3,1.7,0.3,2.6c0,0.4-0.2,0.8-0.4,1.1c-0.2,0.3-0.5,0.4-1,0.5
	c-0.7,0.2-1.5,0.3-2.5,0.3l-2.2,0.1h-3.5c-0.1,0-0.2-0.1-0.3-0.1c-1.2,0-2.1-0.1-2.6-0.1c-0.9-0.1-1.5-0.2-1.9-0.3
	c-0.6-0.2-1-0.6-1.1-1.2c-0.2-0.8-0.1-1.8,0.2-2.8c0.1-0.4,0.4-0.8,0.8-1.1c0.2-0.1,0.4-0.3,0.8-0.5c0.3-0.2,0.8-0.4,1.4-0.7
	c0.5-0.2,0.9-0.4,1.1-0.5c0.3-0.1,0.6-0.3,0.6-0.5c0.2-0.5,0.3-1,0.1-1.4c-0.2-0.5-0.4-1.1-0.6-1.8c0-0.1-0.1-0.1-0.2-0.1
	c-0.2,0-0.3,0-0.4-0.1c-0.1-0.1-0.2-0.2-0.2-0.4l-0.1-0.2c-0.1-0.2-0.1-0.3-0.1-0.4l-0.1-0.2c-0.1-0.4-0.2-0.6-0.2-0.8
	c0-0.3,0.1-0.5,0.4-0.6c0.1,0,0.1-0.1,0.1-0.2c0-0.2,0-0.4,0-0.7l0-0.2c-0.1-1.1,0.1-2.1,0.7-2.9s1.4-1.4,2.5-1.7h0.1
	c0.1,0,0.2,0,0.3-0.1h0.8l0.1,0c0.1,0,0.1,0,0.1,0c0.7,0.1,1.3,0.4,1.9,0.8c0.6,0.4,1,1,1.2,1.7c0.3,0.7,0.4,1.3,0.3,2.1
	c0,0.1,0,0.3-0.1,0.6l0,0.3c0,0.2,0,0.3,0.2,0.3c0.2,0,0.3,0.1,0.3,0.3c0,0.2,0,0.4,0,0.6l-0.4,1.4c-0.1,0.3-0.3,0.4-0.6,0.4
	c-0.1,0-0.2,0-0.2,0.2c-0.1,0.5-0.3,1-0.6,1.7c-0.2,0.4-0.2,0.8,0,1.2c0.1,0.4,0.4,0.6,0.8,0.8c0.1,0,0.2,0.1,0.4,0.1l0.7,0.3
	c0.9,0.4,1.6,0.8,2.1,1C-393.2,439.1-392.9,439.5-392.8,439.9z M-386.2,440v0.8c0,0-0.1,0-0.1,0.1c-0.1,0.5-0.4,0.8-1,0.9
	c-0.6,0.1-1.5,0.2-2.7,0.2h0c-0.2,0-0.4,0-0.8,0c-0.3,0-0.6,0-0.8,0c-0.2,0-0.3,0-0.3,0c0,0-0.1-0.1-0.1-0.3c0-0.7-0.1-1.4-0.3-2
	c-0.1-0.5-0.3-0.9-0.7-1.2c-0.3-0.3-0.7-0.5-1.2-0.8l-0.4-0.2l-0.1-0.1c0.3-0.2,0.5-0.3,0.7-0.3c0.3-0.1,0.5-0.3,0.6-0.6
	c0.1-0.3,0-0.6-0.1-0.9c0,0-0.1-0.1-0.2-0.1l-0.1,0c-0.9-0.2-1.6-0.4-2-0.6c-0.3-0.2-0.5-0.4-0.6-0.6c-0.1-0.1-0.1-0.1-0.1-0.2
	c0,0,0.1-0.1,0.2-0.1c0.4-0.1,0.8-0.3,1-0.8c0.2-0.3,0.3-0.9,0.4-1.6l0.1-0.7c0.1-0.7,0.3-1.2,0.6-1.7c0.3-0.5,0.8-0.9,1.3-1.2
	c0.5-0.3,1.1-0.4,1.7-0.3c0.6,0.1,1.1,0.3,1.6,0.7c0.5,0.4,0.8,0.8,1,1.4c0.1,0.3,0.2,0.8,0.3,1.4l0.1,0.5c0.1,0.8,0.3,1.4,0.6,1.8
	c0.2,0.3,0.4,0.4,0.7,0.6c0.1,0,0.2,0.1,0.2,0.1c0,0.1,0,0.1-0.1,0.2c-0.2,0.3-0.5,0.5-1,0.8c-0.4,0.2-0.9,0.3-1.5,0.4
	c-0.1,0-0.1,0-0.2,0.1c0,0-0.1,0.1-0.1,0.2c-0.1,0.3-0.1,0.6,0,0.8c0.1,0.2,0.3,0.4,0.6,0.6c0.2,0.1,0.4,0.2,0.8,0.3
	c0.5,0.2,0.9,0.4,1.2,0.6c0.4,0.3,0.6,0.6,0.7,0.9L-386.2,440z"/>
<path class="st0" d="M-393.1,464.5v18.4c0,0.4-0.1,0.7-0.2,0.8c-0.2,0.2-0.4,0.2-0.8,0.2h-17.9c-0.4,0-0.7-0.1-0.8-0.3
	c-0.2-0.2-0.2-0.5-0.2-0.8v-22c0-0.7,0.3-1.1,1-1.1h14.2c0.4,0,0.7,0.1,0.9,0.4l1.7,1.7c0.8,0.8,1.3,1.3,1.7,1.7
	C-393.2,463.8-393.1,464.2-393.1,464.5z M-397.7,474.7c0.1-0.1,0.1-0.2,0.1-0.3c0-0.2-0.2-0.3-0.5-0.3h-10.1c-0.2,0-0.3,0-0.4,0.1
	c-0.1,0.1-0.1,0.2-0.1,0.3c0,0.1,0.1,0.2,0.1,0.2c0.1,0,0.2,0.1,0.4,0.1h8.8c0.6,0,1.1,0,1.4,0
	C-397.9,474.8-397.8,474.8-397.7,474.7z M-408.7,467.6c0,0.2,0.1,0.3,0.4,0.3s0.7,0,1.3,0h1.3c0.6,0,1,0,1.3,0s0.4-0.1,0.4-0.3
	c0-0.2-0.1-0.3-0.4-0.3c-1.3,0-2.6,0-3.9,0C-408.5,467.2-408.7,467.4-408.7,467.6z M-397.6,471.2c0.1-0.1,0.1-0.2,0-0.3
	c-0.1-0.1-0.2-0.2-0.4-0.2h-10.2c-0.3,0-0.4,0.1-0.4,0.3c0,0.1,0,0.2,0.1,0.2c0.1,0,0.2,0.1,0.3,0.1l0.3,0h8.3c0.8,0,1.4,0,1.8,0
	C-397.8,471.4-397.7,471.3-397.6,471.2z M-397.8,477.7c-0.1,0-0.2-0.1-0.3-0.1h-10.3c-0.1,0-0.2,0-0.2,0.1c-0.1,0.1-0.1,0.1-0.1,0.2
	c0,0.2,0.1,0.3,0.3,0.3c0,0,0.1,0,0.2,0l8.6,0c0.7,0,1.2,0,1.6,0c0.2,0,0.3-0.1,0.3-0.3C-397.6,477.9-397.6,477.7-397.8,477.7z
	 M-388.3,478.2c0,0.3-0.1,0.5-0.3,0.6c-0.1,0.1-0.3,0.2-0.6,0.2c-0.4,0-1,0-1.8,0c-0.2,0-0.2-0.1-0.2-0.3v-1.2c0-0.1,0-0.2,0.1-0.2
	c0,0,0.1-0.1,0.2-0.1h0.1c0.3,0,0.5,0,0.6,0s0.2-0.1,0.2-0.2s0-0.3,0-0.6v-16.2c0-0.1,0-0.2-0.1-0.3c0-0.1-0.1-0.1-0.3-0.1h-2.3
	c-0.2,0-0.4,0-0.5-0.1s-0.1-0.3-0.1-0.5v-0.8c0-0.7,0-1.2,0-1.5c0-0.2,0-0.3-0.1-0.3c-0.1,0-0.2-0.1-0.3-0.1h-12.4
	c-0.3,0-0.4,0-0.4,0c0,0-0.1,0.1-0.1,0.3v0.3c0,0.2-0.1,0.4-0.1,0.4c0,0-0.2,0.1-0.5,0.1c-0.4,0-0.7,0-0.9,0c-0.2,0-0.2-0.1-0.2-0.3
	V457c0-0.5,0-0.9,0-1.1c0-0.6,0.3-1,1-1h14.2c0.5,0,0.9,0.2,1.2,0.5c0.7,0.7,1.8,1.8,3.3,3.2c0.3,0.3,0.4,0.6,0.4,1c0,3,0,6.1,0,9.1
	V478.2z"/>
<path class="st0" d="M-386.2,514.8c0,0.1-0.1,0.2-0.2,0.3l-3.3,2.6c-0.1,0.1-0.2,0.1-0.3,0c-0.1,0-0.1-0.2-0.1-0.4v-0.4
	c0-0.4,0-0.7,0-0.9c0-0.1,0-0.2-0.1-0.2s-0.1,0-0.2,0h-21.6c-0.8,0-1.1-0.4-1.1-1.2v-19.4c0-0.2,0-0.3,0-0.4c0,0-0.1,0-0.4,0h-1.2
	c-0.2,0-0.3-0.1-0.3-0.2c0-0.1,0-0.2,0.1-0.3l2.6-3.4c0.2-0.2,0.3-0.2,0.5,0l2.6,3.4c0,0.1,0.1,0.1,0.1,0.2s0,0.1,0,0.1
	c0,0-0.1,0.1-0.1,0.1c0,0-0.1,0-0.2,0h-1.4c-0.1,0-0.2,0-0.2,0c0,0-0.1,0.1-0.1,0.2v18.4c0,0.2,0,0.3,0.1,0.3c0,0,0.1,0.1,0.3,0.1
	h20.3c0.1,0,0.2,0,0.3-0.1c0,0,0.1-0.1,0.1-0.3c0-0.2,0-0.5,0-0.9v-0.4c0-0.1,0-0.2,0-0.2c0,0,0.1-0.1,0.1-0.1c0.1,0,0.1,0,0.3,0.1
	l1.7,1.3c0.7,0.6,1.3,1,1.7,1.3C-386.3,514.6-386.2,514.7-386.2,514.8z M-410,501.6l2.6-2.6c0.1-0.1,0.1-0.1,0.2-0.1
	s0.1,0.1,0.2,0.2l3.7,4.6c0.1,0.1,0.1,0.1,0.2,0.1s0.1-0.1,0.2-0.1c0.3-0.5,0.9-1.2,1.6-2.1l0.6-0.8l0.5-0.7
	c0.1-0.2,0.3-0.2,0.5-0.2l1.6,0.4c0.8,0.2,1.4,0.3,1.8,0.5c0.1,0,0.2,0,0.3,0c0.1,0,0.1-0.1,0.2-0.1l4.5-3.7
	c0.1-0.1,0.2-0.1,0.2-0.1v1.2c0,1.6,0,2.8,0,3.7c0,0.2-0.1,0.3-0.2,0.4c-1.5,1-3,2.2-4.6,3.4c-0.1,0.1-0.3,0.2-0.5,0.1l-3.3-0.8
	c-0.1,0-0.3,0-0.4,0c-0.1,0-0.2,0.1-0.3,0.2c-0.4,0.5-1,1.3-1.9,2.4l-0.7,0.8c-0.1,0.1-0.2,0.1-0.2,0.2s-0.1,0-0.2-0.1l-3.6-4.3
	c-0.1-0.1-0.2-0.2-0.2-0.2s-0.2,0-0.3,0.2c-0.4,0.4-1,1-1.8,1.8l-0.6,0.7c-0.1,0.1-0.2,0.1-0.3,0.2v-2.3c0-1.1,0-1.9,0-2.4
	C-410.2,501.8-410.2,501.7-410,501.6z M-391.2,509.1v1.1c0,1,0,1.7,0,2.2c0,0.1,0,0.2-0.1,0.3c0,0-0.1,0.1-0.3,0.1h-18
	c-0.2,0-0.4,0-0.4,0c-0.1,0-0.1-0.1-0.1-0.1s0-0.2,0-0.5c0-1.4,0-2.4,0-3.1c0-0.2,0.1-0.4,0.2-0.5l2.6-2.5c0.1-0.1,0.1-0.1,0.2-0.1
	c0.1,0,0.1,0.1,0.2,0.2l3.6,4.4c0.1,0.1,0.2,0.2,0.2,0.2c0.1,0,0.1-0.1,0.2-0.2c0.7-0.9,1.6-2.1,3-3.8c0.1-0.2,0.3-0.3,0.5-0.2
	l3,0.8c0.2,0.1,0.3,0,0.5-0.1l4.4-3.2c0.2-0.1,0.3-0.2,0.4-0.3C-391.2,506.2-391.2,507.9-391.2,509.1z"/>
</svg>
