<?xml version="1.0" encoding="utf-8"?>
<!-- Generator: Adobe Illustrator 19.0.0, SVG Export Plug-In . SVG Version: 6.00 Build 0)  -->
<svg version="1.1" id="Layer_1" xmlns="http://www.w3.org/2000/svg" xmlns:xlink="http://www.w3.org/1999/xlink" x="0px" y="0px"
	 viewBox="-287 410.9 20 20" style="enable-background:new -287 410.9 20 20;" xml:space="preserve">
<style type="text/css">
	.st0{fill:#FFFFFF;}
</style>
<path class="st0" d="M-267,428.1c0,0-0.1,0.1-0.2,0.2l-2.3,1.8c-0.1,0.1-0.2,0.1-0.2,0c-0.1,0-0.1-0.1-0.1-0.3v-0.3
	c0-0.3,0-0.5,0-0.6c0-0.1,0-0.1,0-0.2c0,0-0.1,0-0.2,0h-14.9c-0.5,0-0.8-0.3-0.8-0.8v-13.4c0-0.1,0-0.2,0-0.3c0,0-0.1,0-0.3,0h-0.9
	c-0.1,0-0.2,0-0.2-0.1c0-0.1,0-0.1,0-0.2l1.8-2.3c0.1-0.2,0.2-0.2,0.4,0l1.8,2.3c0,0,0,0.1,0.1,0.1c0,0,0,0.1,0,0.1
	c0,0,0,0.1-0.1,0.1c0,0-0.1,0-0.2,0h-1c-0.1,0-0.1,0-0.1,0c0,0,0,0.1,0,0.1v12.7c0,0.1,0,0.2,0.1,0.2c0,0,0.1,0,0.2,0h14
	c0.1,0,0.2,0,0.2,0c0,0,0.1-0.1,0.1-0.2c0-0.1,0-0.3,0-0.6v-0.3c0-0.1,0-0.1,0-0.2c0,0,0-0.1,0.1-0.1c0,0,0.1,0,0.2,0.1l1.2,0.9
	c0.5,0.4,0.9,0.7,1.1,0.9C-267.1,428-267,428.1-267,428.1z M-283.5,419.1l1.8-1.8c0.1-0.1,0.1-0.1,0.1-0.1s0.1,0,0.1,0.1l2.5,3.1
	c0,0.1,0.1,0.1,0.1,0.1s0.1,0,0.1-0.1c0.2-0.3,0.6-0.8,1.1-1.5l0.4-0.5l0.3-0.5c0.1-0.1,0.2-0.1,0.3-0.1l1.1,0.3
	c0.6,0.1,1,0.2,1.3,0.3c0.1,0,0.1,0,0.2,0c0,0,0.1,0,0.1-0.1l3.1-2.5c0.1,0,0.1-0.1,0.2-0.1v0.8c0,1.1,0,2,0,2.5
	c0,0.1,0,0.2-0.1,0.3c-1,0.7-2.1,1.5-3.2,2.3c-0.1,0.1-0.2,0.1-0.4,0.1l-2.3-0.5c-0.1,0-0.2,0-0.3,0c-0.1,0-0.1,0.1-0.2,0.2
	c-0.3,0.4-0.7,0.9-1.3,1.7l-0.5,0.6c-0.1,0.1-0.1,0.1-0.2,0.1s-0.1,0-0.1-0.1l-2.5-3c-0.1-0.1-0.1-0.1-0.2-0.1c0,0-0.1,0-0.2,0.1
	c-0.3,0.3-0.7,0.7-1.2,1.3l-0.4,0.5c-0.1,0.1-0.1,0.1-0.2,0.1V421c0-0.7,0-1.3,0-1.6C-283.6,419.2-283.5,419.1-283.5,419.1z
	 M-270.4,424.2v0.8c0,0.7,0,1.2,0,1.5c0,0.1,0,0.2,0,0.2c0,0-0.1,0-0.2,0h-12.4c-0.2,0-0.3,0-0.3,0c0,0-0.1,0-0.1-0.1
	c0-0.1,0-0.2,0-0.3c0-0.9,0-1.6,0-2.1c0-0.1,0.1-0.3,0.2-0.3l1.8-1.7c0.1-0.1,0.1-0.1,0.1-0.1c0,0,0.1,0,0.2,0.1l2.5,3
	c0.1,0.1,0.1,0.1,0.2,0.1c0,0,0.1,0,0.2-0.1c0.5-0.6,1.1-1.5,2-2.6c0.1-0.1,0.2-0.2,0.3-0.1l2.1,0.5c0.1,0,0.2,0,0.4-0.1l3-2.2
	c0.1-0.1,0.2-0.1,0.3-0.2C-270.5,422.2-270.5,423.4-270.4,424.2z"/>
</svg>
