<?xml version="1.0" encoding="utf-8"?>
<!-- Generator: Adobe Illustrator 19.0.0, SVG Export Plug-In . SVG Version: 6.00 Build 0)  -->
<svg version="1.1" id="Layer_1" xmlns="http://www.w3.org/2000/svg" xmlns:xlink="http://www.w3.org/1999/xlink" x="0px" y="0px"
	 viewBox="0 0 100 100" style="enable-background:new 0 0 100 100;" xml:space="preserve">
<style type="text/css">
	.st0{fill:#CCCCCC;}
</style>
<g id="XMLID_1_">
	<path id="XMLID_2_" class="st0" d="M83.5,29.1c0.2,0.2,0.4,0.3,0.8,0.3h14.1c0.4,0,0.7,0.2,1.1,0.5c0.3,0.3,0.5,0.7,0.5,1.1v11.4
		c0,0.5-0.2,0.8-0.5,1.1c-0.3,0.3-0.7,0.5-1.1,0.5h-7.2c-0.5,0-0.9,0.2-1.2,0.5c-0.3,0.3-0.6,0.7-0.7,1.1l-6.1,40.2
		c-0.2,0.5-0.4,0.8-0.7,1.1s-0.7,0.5-1.2,0.5H18.6c-0.5,0-0.9-0.2-1.2-0.5c-0.3-0.3-0.6-0.7-0.6-1.1l-6.2-40.2
		c-0.1-0.5-0.3-0.8-0.7-1.1C9.6,44.2,9.2,44,8.8,44H1.6c-0.5,0-0.8-0.2-1.1-0.5C0.2,43.3,0,42.9,0,42.4V31c0-0.4,0.2-0.7,0.5-1.1
		c0.3-0.3,0.7-0.5,1.1-0.5h13.9c0.5,0,0.7-0.1,0.9-0.3c0.1-0.2,0-0.5-0.3-0.8L9,19.7c-0.3-0.3-0.4-0.7-0.4-1.1
		c0-0.5,0.2-0.8,0.6-1.1l5.4-4.5c0.3-0.3,0.7-0.4,1.1-0.4c0.5,0,0.8,0.2,1.1,0.6l12.5,15.1c0.3,0.3,0.7,0.6,1.2,0.8
		c0.5,0.2,1,0.3,1.4,0.3h35.9c0.5,0,0.9-0.1,1.4-0.3c0.5-0.2,0.9-0.5,1.2-0.8L83,13.2c0.3-0.4,0.7-0.6,1.1-0.6
		c0.5,0,0.8,0.1,1.1,0.4l5.4,4.5c0.4,0.3,0.6,0.7,0.6,1.1c0,0.5-0.1,0.8-0.4,1.1l-7.1,8.6C83.5,28.6,83.4,28.8,83.5,29.1z
		 M33.4,77.2c0.3-0.3,0.5-0.7,0.6-1.1V49.3c0-0.5-0.2-0.8-0.5-1.1c-0.3-0.3-0.7-0.5-1.1-0.5h-7.4c-0.5,0-0.8,0.2-1.1,0.5
		c-0.3,0.3-0.4,0.7-0.3,1.1L26.7,76c0.1,0.5,0.3,0.8,0.6,1.1c0.3,0.3,0.7,0.5,1.2,0.5h3.7C32.7,77.6,33.1,77.5,33.4,77.2z
		 M55.5,77.2c0.3-0.3,0.5-0.7,0.5-1.1V49.3c0-0.5-0.2-0.8-0.5-1.1c-0.3-0.3-0.7-0.5-1.1-0.5H47c-0.4,0-0.7,0.2-1.1,0.5
		c-0.3,0.3-0.5,0.7-0.5,1.1V76c0,0.5,0.2,0.8,0.5,1.1c0.3,0.3,0.7,0.5,1.1,0.5h7.4C54.9,77.6,55.2,77.5,55.5,77.2z M74.3,77.2
		c0.3-0.3,0.6-0.7,0.6-1.1l3.3-26.7c0.1-0.5,0-0.8-0.3-1.1c-0.3-0.3-0.7-0.5-1.1-0.5h-7.3c-0.5,0-0.8,0.2-1.1,0.5
		c-0.3,0.3-0.5,0.7-0.5,1.1V76c0,0.5,0.2,0.8,0.5,1.1c0.3,0.3,0.7,0.5,1.1,0.5h3.7C73.6,77.6,74,77.5,74.3,77.2z"/>
</g>
</svg>
