<?xml version="1.0" encoding="utf-8"?>
<!-- Generator: Adobe Illustrator 19.0.0, SVG Export Plug-In . SVG Version: 6.00 Build 0)  -->
<svg version="1.1" id="Layer_1" xmlns="http://www.w3.org/2000/svg" xmlns:xlink="http://www.w3.org/1999/xlink" x="0px" y="0px"
	 viewBox="-287 410.9 20 20" style="enable-background:new -287 410.9 20 20;" xml:space="preserve">
<style type="text/css">
	.st0{fill:#FFFFFF;}
</style>
<path class="st0" d="M-282.2,424c-0.2,0.3-0.3,0.7-0.4,1.2l0,0.2c0,0.3,0,0.6,0,0.7c0,0.1,0,0.1,0,0.1c0,0-0.1,0-0.1,0l-0.8,0
	c-1,0-1.7-0.1-2.2-0.1c-0.3,0-0.5-0.1-0.6-0.1c-0.3-0.1-0.6-0.3-0.6-0.7c0-0.1,0-0.1,0-0.1v-0.7c0,0,0-0.1,0-0.2
	c0.1-0.7,0.4-1.1,1-1.4c0.2-0.1,0.6-0.3,1-0.5l0.3-0.1c0.2-0.1,0.4-0.3,0.5-0.4c0.1-0.2,0.1-0.4,0-0.6c-0.1-0.3-0.2-0.6-0.3-0.9
	c0-0.1-0.1-0.1-0.2-0.1c-0.1,0-0.2-0.1-0.2-0.2c-0.2-0.4-0.3-0.8-0.3-1c0-0.1,0-0.2,0.1-0.3c0.1-0.1,0.2-0.1,0.3,0
	c0.1,0,0.1,0,0.1,0c0,0,0-0.1,0-0.1v0c0-0.3-0.1-0.6-0.1-0.9c0-0.5,0.1-0.9,0.5-1.3c0.3-0.4,0.7-0.6,1.2-0.7c0.4-0.1,0.8,0,1.2,0.1
	c0.4,0.2,0.7,0.4,0.9,0.7c0.2,0.3,0.3,0.7,0.3,1.1c0,0.2,0,0.5-0.1,0.9c0,0.1,0,0.2,0,0.2c0,0,0.1,0,0.2,0c0.1,0,0.1,0,0.2,0
	c0.1,0,0.1,0.1,0.1,0.2c0,0.1,0,0.2,0,0.3l-0.2,0.8c0,0.2-0.1,0.2-0.3,0.2c-0.1,0-0.1,0-0.1,0.1c0,0.2-0.1,0.5-0.3,1
	c-0.1,0.2-0.1,0.4,0,0.6c0.1,0.2,0.2,0.3,0.4,0.4c0.1,0.1,0.2,0.1,0.4,0.2l0.3,0.1c0,0-0.1,0.1-0.1,0.1l-0.1,0
	c-0.3,0.1-0.6,0.3-1,0.5C-281.7,423.4-282,423.6-282.2,424z M-271.6,424.5c0.2,0.6,0.2,1.2,0.2,1.8c0,0.3-0.1,0.5-0.3,0.7
	c-0.1,0.2-0.4,0.3-0.7,0.4c-0.5,0.1-1.1,0.2-1.7,0.2l-1.5,0.1h-2.4c-0.1,0-0.1,0-0.2,0c-0.8,0-1.4-0.1-1.8-0.1
	c-0.6-0.1-1-0.1-1.3-0.2c-0.4-0.1-0.7-0.4-0.8-0.9c-0.1-0.6-0.1-1.2,0.1-1.9c0.1-0.3,0.3-0.6,0.6-0.8c0.1-0.1,0.3-0.2,0.5-0.3
	c0.2-0.1,0.5-0.3,1-0.5c0.3-0.1,0.6-0.3,0.8-0.3c0.2-0.1,0.4-0.2,0.4-0.3c0.2-0.3,0.2-0.7,0.1-1c-0.2-0.3-0.3-0.8-0.4-1.2
	c0-0.1-0.1-0.1-0.1-0.1c-0.1,0-0.2,0-0.3-0.1c-0.1-0.1-0.1-0.2-0.1-0.3l0-0.1c0-0.1-0.1-0.2-0.1-0.3l-0.1-0.2
	c-0.1-0.3-0.1-0.4-0.1-0.6c0-0.2,0.1-0.4,0.3-0.4c0.1,0,0.1-0.1,0.1-0.1c0-0.1,0-0.3,0-0.5l0-0.1c-0.1-0.8,0.1-1.4,0.5-2
	c0.4-0.6,1-1,1.7-1.2h0.1c0.1,0,0.1,0,0.2-0.1h0.6l0,0c0.1,0,0.1,0,0.1,0c0.5,0.1,0.9,0.3,1.3,0.6c0.4,0.3,0.7,0.7,0.8,1.1
	c0.2,0.5,0.2,0.9,0.2,1.4c0,0.1,0,0.2,0,0.4l0,0.2c0,0.1,0,0.2,0.2,0.2c0.1,0,0.2,0.1,0.2,0.2c0,0.2,0,0.3,0,0.4l-0.3,1
	c-0.1,0.2-0.2,0.3-0.4,0.3c-0.1,0-0.1,0-0.1,0.1c-0.1,0.3-0.2,0.7-0.4,1.2c-0.1,0.3-0.1,0.6,0,0.8c0.1,0.2,0.3,0.4,0.6,0.6
	c0.1,0,0.1,0.1,0.3,0.1l0.5,0.2c0.7,0.3,1.1,0.5,1.4,0.7C-271.8,424-271.6,424.2-271.6,424.5z M-267,424.6v0.6c0,0,0,0,0,0
	c-0.1,0.3-0.3,0.6-0.7,0.6c-0.4,0.1-1,0.1-1.9,0.2h0c-0.1,0-0.3,0-0.5,0c-0.2,0-0.4,0-0.5,0c-0.1,0-0.2,0-0.2,0c0,0,0-0.1,0-0.2
	c0-0.5-0.1-0.9-0.2-1.4c-0.1-0.3-0.2-0.6-0.5-0.8c-0.2-0.2-0.5-0.4-0.8-0.5l-0.3-0.1l-0.1-0.1c0.2-0.1,0.4-0.2,0.5-0.2
	c0.2-0.1,0.3-0.2,0.4-0.4c0-0.2,0-0.4-0.1-0.6c0,0-0.1,0-0.1-0.1l-0.1,0c-0.6-0.1-1.1-0.2-1.4-0.4c-0.2-0.1-0.3-0.3-0.4-0.4
	c0-0.1-0.1-0.1,0-0.1c0,0,0-0.1,0.1-0.1c0.3,0,0.5-0.2,0.7-0.6c0.1-0.2,0.2-0.6,0.3-1.1l0.1-0.5c0.1-0.5,0.2-0.8,0.4-1.1
	c0.2-0.4,0.5-0.6,0.9-0.8c0.4-0.2,0.8-0.3,1.2-0.2c0.4,0.1,0.8,0.2,1.1,0.5c0.3,0.3,0.6,0.6,0.7,1c0.1,0.2,0.1,0.5,0.2,1l0,0.3
	c0.1,0.5,0.2,0.9,0.4,1.2c0.1,0.2,0.3,0.3,0.5,0.4c0.1,0,0.1,0.1,0.1,0.1c0,0,0,0.1,0,0.1c-0.1,0.2-0.4,0.4-0.7,0.5
	c-0.3,0.1-0.6,0.2-1.1,0.3c-0.1,0-0.1,0-0.1,0.1c0,0-0.1,0.1-0.1,0.1c-0.1,0.2-0.1,0.4,0,0.6c0.1,0.2,0.2,0.3,0.4,0.4
	c0.1,0.1,0.3,0.1,0.5,0.2c0.4,0.2,0.6,0.3,0.8,0.4c0.3,0.2,0.4,0.4,0.5,0.6L-267,424.6z"/>
<path class="st0" d="M-393.1,464.5v18.4c0,0.4-0.1,0.7-0.2,0.8c-0.2,0.2-0.4,0.2-0.8,0.2h-17.9c-0.4,0-0.7-0.1-0.8-0.3
	c-0.2-0.2-0.2-0.5-0.2-0.8v-22c0-0.7,0.3-1.1,1-1.1h14.2c0.4,0,0.7,0.1,0.9,0.4l1.7,1.7c0.8,0.8,1.3,1.3,1.7,1.7
	C-393.2,463.8-393.1,464.2-393.1,464.5z M-397.7,474.7c0.1-0.1,0.1-0.2,0.1-0.3c0-0.2-0.2-0.3-0.5-0.3h-10.1c-0.2,0-0.3,0-0.4,0.1
	c-0.1,0.1-0.1,0.2-0.1,0.3c0,0.1,0.1,0.2,0.1,0.2c0.1,0,0.2,0.1,0.4,0.1h8.8c0.6,0,1.1,0,1.4,0
	C-397.9,474.8-397.8,474.8-397.7,474.7z M-408.7,467.6c0,0.2,0.1,0.3,0.4,0.3s0.7,0,1.3,0h1.3c0.6,0,1,0,1.3,0s0.4-0.1,0.4-0.3
	c0-0.2-0.1-0.3-0.4-0.3c-1.3,0-2.6,0-3.9,0C-408.5,467.2-408.7,467.4-408.7,467.6z M-397.6,471.2c0.1-0.1,0.1-0.2,0-0.3
	c-0.1-0.1-0.2-0.2-0.4-0.2h-10.2c-0.3,0-0.4,0.1-0.4,0.3c0,0.1,0,0.2,0.1,0.2c0.1,0,0.2,0.1,0.3,0.1l0.3,0h8.3c0.8,0,1.4,0,1.8,0
	C-397.8,471.4-397.7,471.3-397.6,471.2z M-397.8,477.7c-0.1,0-0.2-0.1-0.3-0.1h-10.3c-0.1,0-0.2,0-0.2,0.1c-0.1,0.1-0.1,0.1-0.1,0.2
	c0,0.2,0.1,0.3,0.3,0.3c0,0,0.1,0,0.2,0l8.6,0c0.7,0,1.2,0,1.6,0c0.2,0,0.3-0.1,0.3-0.3C-397.6,477.9-397.6,477.7-397.8,477.7z
	 M-388.3,478.2c0,0.3-0.1,0.5-0.3,0.6c-0.1,0.1-0.3,0.2-0.6,0.2c-0.4,0-1,0-1.8,0c-0.2,0-0.2-0.1-0.2-0.3v-1.2c0-0.1,0-0.2,0.1-0.2
	c0,0,0.1-0.1,0.2-0.1h0.1c0.3,0,0.5,0,0.6,0s0.2-0.1,0.2-0.2s0-0.3,0-0.6v-16.2c0-0.1,0-0.2-0.1-0.3c0-0.1-0.1-0.1-0.3-0.1h-2.3
	c-0.2,0-0.4,0-0.5-0.1s-0.1-0.3-0.1-0.5v-0.8c0-0.7,0-1.2,0-1.5c0-0.2,0-0.3-0.1-0.3c-0.1,0-0.2-0.1-0.3-0.1h-12.4
	c-0.3,0-0.4,0-0.4,0c0,0-0.1,0.1-0.1,0.3v0.3c0,0.2-0.1,0.4-0.1,0.4c0,0-0.2,0.1-0.5,0.1c-0.4,0-0.7,0-0.9,0c-0.2,0-0.2-0.1-0.2-0.3
	V457c0-0.5,0-0.9,0-1.1c0-0.6,0.3-1,1-1h14.2c0.5,0,0.9,0.2,1.2,0.5c0.7,0.7,1.8,1.8,3.3,3.2c0.3,0.3,0.4,0.6,0.4,1c0,3,0,6.1,0,9.1
	V478.2z"/>
<path class="st0" d="M-386.2,514.8c0,0.1-0.1,0.2-0.2,0.3l-3.3,2.6c-0.1,0.1-0.2,0.1-0.3,0c-0.1,0-0.1-0.2-0.1-0.4v-0.4
	c0-0.4,0-0.7,0-0.9c0-0.1,0-0.2-0.1-0.2s-0.1,0-0.2,0h-21.6c-0.8,0-1.1-0.4-1.1-1.2v-19.4c0-0.2,0-0.3,0-0.4c0,0-0.1,0-0.4,0h-1.2
	c-0.2,0-0.3-0.1-0.3-0.2c0-0.1,0-0.2,0.1-0.3l2.6-3.4c0.2-0.2,0.3-0.2,0.5,0l2.6,3.4c0,0.1,0.1,0.1,0.1,0.2s0,0.1,0,0.1
	c0,0-0.1,0.1-0.1,0.1c0,0-0.1,0-0.2,0h-1.4c-0.1,0-0.2,0-0.2,0c0,0-0.1,0.1-0.1,0.2v18.4c0,0.2,0,0.3,0.1,0.3c0,0,0.1,0.1,0.3,0.1
	h20.3c0.1,0,0.2,0,0.3-0.1c0,0,0.1-0.1,0.1-0.3c0-0.2,0-0.5,0-0.9v-0.4c0-0.1,0-0.2,0-0.2c0,0,0.1-0.1,0.1-0.1c0.1,0,0.1,0,0.3,0.1
	l1.7,1.3c0.7,0.6,1.3,1,1.7,1.3C-386.3,514.6-386.2,514.7-386.2,514.8z M-410,501.6l2.6-2.6c0.1-0.1,0.1-0.1,0.2-0.1
	s0.1,0.1,0.2,0.2l3.7,4.6c0.1,0.1,0.1,0.1,0.2,0.1s0.1-0.1,0.2-0.1c0.3-0.5,0.9-1.2,1.6-2.1l0.6-0.8l0.5-0.7
	c0.1-0.2,0.3-0.2,0.5-0.2l1.6,0.4c0.8,0.2,1.4,0.3,1.8,0.5c0.1,0,0.2,0,0.3,0c0.1,0,0.1-0.1,0.2-0.1l4.5-3.7
	c0.1-0.1,0.2-0.1,0.2-0.1v1.2c0,1.6,0,2.8,0,3.7c0,0.2-0.1,0.3-0.2,0.4c-1.5,1-3,2.2-4.6,3.4c-0.1,0.1-0.3,0.2-0.5,0.1l-3.3-0.8
	c-0.1,0-0.3,0-0.4,0c-0.1,0-0.2,0.1-0.3,0.2c-0.4,0.5-1,1.3-1.9,2.4l-0.7,0.8c-0.1,0.1-0.2,0.1-0.2,0.2s-0.1,0-0.2-0.1l-3.6-4.3
	c-0.1-0.1-0.2-0.2-0.2-0.2s-0.2,0-0.3,0.2c-0.4,0.4-1,1-1.8,1.8l-0.6,0.7c-0.1,0.1-0.2,0.1-0.3,0.2v-2.3c0-1.1,0-1.9,0-2.4
	C-410.2,501.8-410.2,501.7-410,501.6z M-391.2,509.1v1.1c0,1,0,1.7,0,2.2c0,0.1,0,0.2-0.1,0.3c0,0-0.1,0.1-0.3,0.1h-18
	c-0.2,0-0.4,0-0.4,0c-0.1,0-0.1-0.1-0.1-0.1s0-0.2,0-0.5c0-1.4,0-2.4,0-3.1c0-0.2,0.1-0.4,0.2-0.5l2.6-2.5c0.1-0.1,0.1-0.1,0.2-0.1
	c0.1,0,0.1,0.1,0.2,0.2l3.6,4.4c0.1,0.1,0.2,0.2,0.2,0.2c0.1,0,0.1-0.1,0.2-0.2c0.7-0.9,1.6-2.1,3-3.8c0.1-0.2,0.3-0.3,0.5-0.2
	l3,0.8c0.2,0.1,0.3,0,0.5-0.1l4.4-3.2c0.2-0.1,0.3-0.2,0.4-0.3C-391.2,506.2-391.2,507.9-391.2,509.1z"/>
</svg>
